<svg width="12" height="12" viewBox="0 0 12 12" fill="none" xmlns="http://www.w3.org/2000/svg">
<path fill-rule="evenodd" clip-rule="evenodd" d="M5.99984 0C5.0961 0 4.36348 0.610521 4.36348 1.36364V4.09091C4.36348 4.20011 4.37888 4.30632 4.40798 4.4081C4.30622 4.37902 4.20004 4.36362 4.09086 4.36362H1.36358C0.610467 4.36362 -5.34378e-05 5.09625 -5.34773e-05 5.99999C-5.35168e-05 6.90373 0.610467 7.63635 1.36358 7.63635H4.09086C4.20004 7.63635 4.30622 7.62095 4.40798 7.59187C4.37888 7.69365 4.36348 7.79986 4.36348 7.90907V10.6363C4.36348 11.3895 5.0961 12 5.99984 12C6.90358 12 7.6362 11.3895 7.6362 10.6363V7.90907C7.6362 7.79983 7.62079 7.6936 7.59168 7.59179C7.69353 7.62092 7.79981 7.63635 7.90909 7.63635H10.6364C11.3895 7.63635 12 6.90373 12 5.99999C12 5.09625 11.3895 4.36362 10.6364 4.36362H7.90909C7.79981 4.36362 7.69353 4.37905 7.59168 4.40819C7.62079 4.30638 7.6362 4.20014 7.6362 4.09091V1.36364C7.6362 0.610521 6.90358 0 5.99984 0ZM5.33851 6.66139C5.54074 6.58684 5.76449 6.54543 5.99984 6.54543C6.23531 6.54543 6.45917 6.58688 6.66147 6.6615C6.58688 6.45922 6.54545 6.23541 6.54545 5.99999C6.54545 5.76456 6.58688 5.54076 6.66147 5.33848C6.45916 5.4131 6.23531 5.45455 5.99984 5.45455C5.76449 5.45455 5.54074 5.41314 5.33852 5.3386C5.41308 5.54084 5.45449 5.76461 5.45449 5.99999C5.45449 6.23537 5.41308 6.45914 5.33851 6.66139Z" fill="#FBD858"/>
</svg>
