<svg width="170" height="100" viewBox="0 0 170 100" fill="none" xmlns="http://www.w3.org/2000/svg">
<path d="M41.1718 36.9734H29.0132C28.4433 36.9734 28 37.427 28 37.9453V39.954C28 40.5372 28.4433 40.9908 29.0132 40.9908H31.9895C32.3062 40.9908 32.5595 41.3148 32.5595 41.6387V61.7257C32.5595 62.3088 33.0028 62.7624 33.5094 62.7624H36.549C37.1189 62.7624 37.5622 62.3088 37.5622 61.7257V41.6387C37.5622 41.3148 37.8155 40.9908 38.1955 40.9908H41.2351C41.8051 40.9908 42.2483 40.5372 42.2483 39.954V37.9453C42.185 37.427 41.7417 36.9734 41.1718 36.9734Z" fill="white" fill-opacity="0.5"/>
<path d="M55.1035 46.2393C54.5969 44.6194 53.0771 43.5178 51.3673 43.5826C50.1641 43.5826 49.0242 44.0362 48.1377 44.8786C48.0743 44.9434 48.011 45.0082 47.9477 45.0082C47.9477 44.9434 47.8844 44.8786 47.8844 44.8138V38.0101C47.8844 37.427 47.4411 36.9734 46.8711 36.9734H44.3381C43.7682 36.9734 43.3249 37.427 43.3249 38.0101V61.7905C43.3249 62.3736 43.7682 62.8272 44.2748 62.8272C44.2748 62.8272 44.2748 62.8272 44.3381 62.8272H46.9345C47.5044 62.8272 47.9477 62.3736 47.9477 61.7905V49.2847C47.9477 49.0255 47.9477 48.8312 48.011 48.572C48.1377 47.924 48.7076 47.4056 49.4042 47.4704C49.9108 47.4704 50.4174 47.7296 50.6707 48.1832C50.7974 48.6368 50.8607 49.0903 50.7974 49.5439V61.7905C50.7974 62.3736 51.2406 62.8272 51.8106 62.8272H54.4069C54.9769 62.8272 55.4201 62.3736 55.4201 61.7905V48.1832C55.4201 47.5352 55.2935 46.8873 55.1035 46.2393Z" fill="white" fill-opacity="0.5"/>
<path d="M61.816 54.5333H67.3887C67.9587 54.5333 68.4019 54.1445 68.4019 53.5614V53.4966V49.0256C68.4653 48.1185 68.2753 47.1465 67.8953 46.3042C67.3254 45.1378 65.6156 43.5827 62.6393 43.5827C60.4862 43.5827 58.0798 44.3603 57.1299 46.6281C56.8133 47.4705 56.6866 48.3128 56.6866 49.22V56.9956C56.6866 57.8379 56.8133 58.6803 57.0033 59.4579C57.5099 61.2074 58.8397 63.1513 62.576 63.1513H62.6393C65.0457 63.1513 67.4521 62.4385 68.1486 59.717C68.3386 59.1339 68.4019 58.5507 68.3386 57.9675V57.2548C68.3386 56.7364 67.8953 56.2828 67.3887 56.2828H67.3254H64.8557C64.2858 56.2828 63.8425 56.7364 63.8425 57.3196C63.8425 57.7083 63.7792 58.0971 63.7158 58.4859C63.5892 59.0043 63.0826 59.3931 62.576 59.3283C62.006 59.3931 61.4361 59.0043 61.3094 58.4211C61.1828 58.0323 61.1828 57.6435 61.1828 57.2548V55.0517C61.1828 54.8573 61.4994 54.5333 61.816 54.5333ZM61.2461 49.0256C61.2461 48.7016 61.3094 48.3128 61.4361 47.9889C61.6261 47.5353 62.1327 47.2761 62.576 47.3409C63.0192 47.2761 63.3992 47.5353 63.6525 47.9241C63.7792 48.2481 63.8425 48.572 63.8425 48.8312V50.3863C63.8425 50.7103 63.5892 51.0343 63.2725 51.0343H61.8794C61.4994 51.0343 61.2461 50.7751 61.2461 50.3863V49.0256Z" fill="white" fill-opacity="0.5"/>
<path d="M83.0936 50.9694C82.5237 50.1919 81.7637 49.4791 81.0038 48.9608L76.571 45.8505C76.2544 45.6561 75.9378 45.3969 75.6844 45.073C75.3678 44.425 75.1778 43.7122 75.2412 42.9347V42.7403C75.3045 40.6668 76.0644 40.4724 77.0776 40.4076C78.7241 40.4076 78.8507 41.3148 78.9141 42.0275V43.777C78.9141 44.3602 79.3574 44.8138 79.864 44.8138H82.8403C83.4102 44.8138 83.8535 44.3602 83.8535 43.777V42.0923C83.9168 41.3148 83.7268 40.602 83.4735 39.8892C82.0804 36.3902 78.0275 36.3902 77.2676 36.3902C76.761 36.3902 72.3915 36.3254 70.935 39.6301C70.4917 40.7316 70.3017 41.8979 70.3017 43.0643V43.1939C70.3017 45.3969 70.6817 46.4337 71.1883 47.3408C71.6949 48.248 72.4548 48.9608 73.3414 49.4791L77.6476 52.4598C78.0275 52.719 78.3441 53.0429 78.6608 53.3669C78.9774 53.9501 79.1674 54.6628 79.1041 55.3108V55.57C79.1041 57.3195 79.1041 58.3563 78.5341 58.8098C78.0908 59.1338 77.5842 59.3282 77.0776 59.2634C76.6343 59.2634 76.1911 59.1338 75.7478 58.9394C75.0512 58.4858 74.9879 57.7731 74.9879 56.9307V54.4037C74.9879 53.8205 74.5446 53.3669 73.9747 53.3669H71.0617C70.4917 53.3669 70.0484 53.8205 70.0484 54.4037V57.3195C69.9851 58.2267 70.1751 59.1986 70.555 60.041C70.8717 60.7537 71.315 61.4017 71.9482 61.8553C73.468 63.0864 75.4311 63.3456 77.1409 63.3456C81.4471 63.3456 83.2202 61.4017 83.7902 59.3282C84.0435 58.0971 84.1068 56.8011 84.0435 55.5052V54.6628C84.2335 53.3669 83.8535 52.071 83.0936 50.9694Z" fill="white" fill-opacity="0.5"/>
<path d="M93.5423 59.6522C93.479 59.4578 93.289 59.3282 93.0991 59.3282C92.9724 59.3282 92.9091 59.3282 92.7824 59.3282C92.0859 59.3282 91.3893 59.1987 91.1993 58.4859C91.0726 58.1619 91.0726 57.8379 91.0726 57.5787V47.8593C91.0726 47.5353 91.3259 47.2113 91.6426 47.2113H92.5291C93.0991 47.2113 93.5423 46.7577 93.5423 46.1745V45.073C93.5423 44.4898 93.0991 44.0363 92.5291 44.0363H91.6426C91.3259 44.0363 91.0726 43.7771 91.0726 43.4531V39.8893C91.0726 39.3061 90.6294 38.8525 90.0594 38.8525H87.4631C86.8931 38.8525 86.4498 39.3061 86.4498 39.8893V43.3883C86.4498 43.7123 86.1332 43.9715 85.8166 43.9715H85.1833C84.6134 43.9715 84.1701 44.425 84.1701 45.0082V46.2393C84.1701 46.8225 84.6134 47.2761 85.1833 47.2761H85.8799C86.1965 47.2761 86.5132 47.5353 86.5132 47.8593V58.9395C86.4498 59.717 86.5765 60.4298 86.8931 61.1425C87.4631 62.4385 88.8562 62.9568 91.2626 62.9568H91.3259C91.7692 62.9568 92.2758 62.9568 92.7191 62.8921C93.289 62.7625 93.669 62.3089 93.669 61.7257V60.2354C93.669 60.041 93.6057 59.7818 93.5423 59.6522Z" fill="white" fill-opacity="0.5"/>
<path d="M103.801 44.6193C103.801 44.101 103.421 43.7122 102.915 43.6474H102.788C101.648 43.777 100.635 44.3602 99.9383 45.2673C99.8116 45.3969 99.7483 45.5265 99.685 45.6561V44.9433C99.685 44.3602 99.2417 43.9066 98.6718 43.9066H96.0754C95.5055 43.9066 95.0622 44.3602 95.0622 44.9433V61.7256C95.0622 62.3088 95.5055 62.7624 96.0754 62.7624H98.6718C99.2417 62.7624 99.685 62.3088 99.685 61.7256V51.4878C99.685 50.3214 99.7483 49.0903 100.698 48.3775C101.141 48.1184 101.648 47.9888 102.155 47.9888C102.408 47.9888 102.598 47.9888 102.788 48.0536C102.851 48.0536 102.915 48.0536 102.978 48.0536C103.168 48.0536 103.358 47.9888 103.485 47.7944C103.611 47.6648 103.675 47.4056 103.675 47.2112L103.801 44.6193Z" fill="white" fill-opacity="0.5"/>
<path d="M109.627 54.5333H115.2C115.77 54.5333 116.213 54.0797 116.213 53.4966V49.0256C116.276 48.1185 116.086 47.1465 115.706 46.3042C115.137 45.1378 113.427 43.5827 110.45 43.5827C108.297 43.5827 105.891 44.3603 104.941 46.6281C104.624 47.4705 104.434 48.3128 104.434 49.22V56.9956C104.434 57.8379 104.561 58.6803 104.751 59.4579C105.258 61.2074 106.588 63.1513 110.387 63.1513H110.45C112.857 63.1513 115.2 62.3737 115.96 59.717C116.086 59.1339 116.15 58.5507 116.15 57.9675V57.2548C116.15 56.7364 115.706 56.2828 115.2 56.2828H112.73C112.16 56.2828 111.717 56.7364 111.717 57.3196C111.717 57.7083 111.654 58.0971 111.59 58.4859C111.464 59.0043 110.957 59.3931 110.45 59.3283C109.88 59.3931 109.374 59.0043 109.184 58.4211C109.057 58.0323 109.057 57.6435 109.057 57.2548V55.0517C109.057 54.7277 109.247 54.4037 109.564 54.4037C109.564 54.5333 109.564 54.5333 109.627 54.5333ZM110.324 47.4057C110.767 47.3409 111.21 47.6001 111.4 47.9889C111.527 48.3128 111.59 48.6368 111.59 48.896V50.4511C111.59 50.7751 111.337 51.0991 111.02 51.0991H109.627C109.311 51.0991 108.994 50.8399 108.994 50.5159V49.0256C108.994 48.7016 109.057 48.3128 109.184 47.9889C109.374 47.6001 109.817 47.3409 110.324 47.4057Z" fill="white" fill-opacity="0.5"/>
<path d="M122.546 54.5333H128.118C128.688 54.5333 129.132 54.0797 129.132 53.4966V49.0256C129.195 48.1185 129.005 47.1465 128.625 46.3042C128.055 45.1378 126.345 43.5827 123.369 43.5827C121.216 43.5827 118.809 44.3603 117.86 46.6281C117.543 47.4705 117.416 48.3128 117.416 49.22V56.9956C117.416 57.8379 117.543 58.6803 117.733 59.4579C118.239 61.2074 119.569 63.1513 123.369 63.1513H123.432C125.839 63.1513 128.182 62.3737 128.942 59.717C129.068 59.1339 129.132 58.5507 129.132 57.9675V57.2548C129.132 56.7364 128.688 56.2828 128.182 56.2828C128.182 56.2828 128.182 56.2828 128.118 56.2828H125.649C125.079 56.2828 124.635 56.7364 124.635 57.3196C124.635 57.7083 124.572 58.0971 124.509 58.4859C124.382 59.0043 123.876 59.3931 123.369 59.3283C122.799 59.3283 122.292 59.0043 122.102 58.4211C121.976 58.0323 121.976 57.6435 121.976 57.2548V55.0517C121.912 54.7925 122.229 54.5333 122.546 54.5333ZM123.306 47.4057C123.749 47.3409 124.192 47.6001 124.382 47.9889C124.509 48.3128 124.572 48.6368 124.572 48.896V50.4511C124.572 50.8399 124.319 51.0991 123.939 51.0991H122.546C122.166 51.0991 121.912 50.8399 121.912 50.4511V48.9608C121.912 48.6368 121.976 48.2481 122.102 47.9241C122.356 47.5353 122.799 47.2761 123.242 47.3409L123.306 47.4057Z" fill="white" fill-opacity="0.5"/>
<path d="M138.757 59.6522C138.694 59.4578 138.504 59.3282 138.314 59.3282H138.25C138.124 59.3282 138.061 59.3282 137.934 59.3282C137.237 59.3282 136.541 59.1986 136.351 58.4859C136.224 58.1619 136.224 57.8379 136.224 57.5787V47.8592C136.224 47.5353 136.477 47.2113 136.794 47.2113H137.681C138.25 47.2113 138.694 46.7577 138.694 46.1745V45.073C138.694 44.4898 138.25 44.0362 137.681 44.0362H136.794C136.477 44.0362 136.161 43.7123 136.224 43.3883V39.8245C136.224 39.2413 135.781 38.7877 135.211 38.7877H132.678C132.108 38.7877 131.665 39.2413 131.665 39.7597V43.3235C131.665 43.6475 131.411 43.9714 131.095 43.9714H130.461C129.891 43.9714 129.448 44.425 129.448 44.9434V46.1097C129.448 46.6929 129.891 47.1465 130.461 47.1465H131.158C131.475 47.1465 131.728 47.4705 131.728 47.7944V58.9394C131.665 59.717 131.791 60.4298 132.108 61.1425C132.678 62.4385 134.071 62.9568 136.477 62.9568C136.921 62.9568 137.427 62.9568 137.871 62.892C138.44 62.7624 138.82 62.3089 138.82 61.7257V60.2354C138.82 60.041 138.82 59.8466 138.757 59.6522Z" fill="white" fill-opacity="0.5"/>
<path d="M141.797 62.9568C141.164 62.9568 140.657 62.3736 140.657 61.7257C140.657 61.0777 141.227 60.5593 141.86 60.5593C142.493 60.5593 143 61.1425 143 61.7905C143 62.4384 142.493 62.9568 141.797 62.9568ZM141.797 60.6889C141.353 60.6889 140.974 61.0777 140.974 61.5313C140.974 61.9848 141.353 62.3736 141.797 62.3736C142.24 62.3736 142.62 61.9848 142.62 61.5313C142.683 61.0777 142.303 60.6889 141.797 60.6889ZM141.797 61.0129C141.923 61.0129 142.05 61.0129 142.177 61.0777C142.303 61.2073 142.367 61.3369 142.367 61.4665C142.367 61.6609 142.24 61.7905 142.113 61.8553L142.367 62.5032H142.05L141.86 61.9201H141.67V62.5032H141.354V61.0129H141.797ZM141.607 61.6609H141.797C141.923 61.6609 142.05 61.5961 142.05 61.4665C142.05 61.3369 141.987 61.2721 141.797 61.2721H141.607V61.6609Z" fill="white" fill-opacity="0.5"/>
</svg>
