<svg width="170" height="100" viewBox="0 0 170 100" fill="none" xmlns="http://www.w3.org/2000/svg">
<g clip-path="url(#clip0_97_7650)">
<path d="M44.6272 38.5158H46.8178C48.1519 38.3132 49.5143 38.4913 50.7571 39.0308C52.3163 39.9978 53.4471 41.5546 53.9085 43.369C54.2352 44.3199 54.2352 44.3199 55.0231 43.9831H55.638V36.4556H35.0192V37.7828H35.8647C36.2321 37.7802 36.5955 37.8625 36.928 38.0236C37.2605 38.1847 37.5538 38.4206 37.7863 38.7139C38.5742 40.0213 38.7087 41.4872 38.7087 49.1137C38.7087 57.2157 38.5357 59.1966 37.7863 60.2069C37.6013 60.4666 37.3618 60.6799 37.0856 60.8308C36.8094 60.9818 36.5037 61.0664 36.1914 61.0785C35.0192 61.2964 35.0192 61.2766 35.0192 61.8114C34.9544 61.9903 34.9544 62.1873 35.0192 62.3661H48.0284C48.1145 62.1911 48.1594 61.9977 48.1594 61.8015C48.1594 61.6054 48.1145 61.4119 48.0284 61.237C47.7133 61.1466 47.3922 61.0804 47.0676 61.0389C46.7165 60.9958 46.3694 60.923 46.03 60.821C45.5438 60.4551 45.1587 59.9648 44.9127 59.3985C44.6667 58.8322 44.5683 58.2096 44.6272 57.5921C44.435 56.2847 44.339 53.8877 44.339 51.9068V50.3419H45.1076C46.0652 50.3117 47.0223 50.4184 47.9516 50.6588C48.3967 50.9424 48.7757 51.3238 49.0614 51.7758C49.347 52.2278 49.5324 52.7393 49.6041 53.2737L49.7771 53.8877H50.9493V45.1123H49.8732L49.7002 45.9641C49.6275 46.5105 49.4314 47.0318 49.1277 47.4859C48.8239 47.94 48.4211 48.3144 47.9516 48.5789C47.4968 48.7184 47.0177 48.7522 46.5488 48.6779H44.339V46.5385C44.339 44.3199 44.4543 39.6449 44.5311 38.912L44.6272 38.5158ZM134.558 54.2245C133.65 52.7174 132.233 51.6098 130.58 51.1145C129.313 50.7062 128.142 50.0317 127.141 49.1335C126.915 48.9088 126.747 48.6307 126.65 48.3234C126.552 48.0161 126.53 47.6889 126.583 47.3705C126.585 46.7459 126.827 46.1474 127.256 45.7065C127.547 45.3925 127.915 45.1658 128.321 45.0506C128.727 44.9355 129.156 44.9363 129.562 45.0528C130.402 45.2996 131.162 45.7761 131.76 46.4317C132.359 47.0873 132.775 47.8977 132.963 48.777C133.271 49.6684 133.309 49.6684 133.866 49.4307L134.212 49.292V44.3595L133.962 44.2406C132.071 43.5557 130.064 43.2727 128.063 43.4087C126.34 43.4537 124.695 44.1601 123.451 45.3896C122.887 45.9341 122.445 46.5992 122.156 47.3383C121.867 48.0774 121.739 48.8727 121.779 49.6684C121.79 50.8849 122.259 52.0496 123.086 52.9171C124 53.8442 125.122 54.5245 126.353 54.898C129.331 56.1064 130.196 56.8789 130.196 58.2854C130.209 58.8785 130.026 59.4585 129.676 59.93C129.327 60.4016 128.833 60.7367 128.274 60.8804C127.603 61.0324 126.908 61.0324 126.238 60.8804C125.359 60.5289 124.575 59.9663 123.95 59.2393C123.325 58.5123 122.877 57.6419 122.644 56.7007L122.394 56.0668H122.048C121.883 56.0794 121.721 56.1196 121.568 56.1856H121.376V61.8114H121.703C123.001 62.2566 124.34 62.562 125.699 62.7227H127.621C128.454 62.7857 129.292 62.7054 130.1 62.485C131.125 62.2899 132.084 61.8216 132.879 61.1265C133.675 60.4315 134.28 59.534 134.635 58.5231C134.864 57.9585 134.982 57.3524 134.981 56.7403C135.056 55.878 134.911 55.0103 134.558 54.2245ZM116.457 43.9831C115.305 43.4847 114.064 43.243 112.816 43.2737C111.567 43.3044 110.339 43.607 109.212 44.1614C108.153 44.6956 107.214 45.4529 106.456 46.3844C105.698 47.3159 105.138 48.4009 104.812 49.5693C104.396 50.8439 104.22 52.1886 104.293 53.5312C104.279 54.2617 104.337 54.9917 104.466 55.7102C104.776 57.4768 105.603 59.1032 106.837 60.3709C108.07 61.6386 109.65 62.4869 111.364 62.8019C112.481 62.9469 113.611 62.9469 114.727 62.8019C115.886 62.5914 116.995 62.1543 117.994 61.5143C118.82 61.0366 119.52 60.3562 120.031 59.5334C119.998 59.4043 119.94 59.2833 119.861 59.1778C119.782 59.0723 119.683 58.9843 119.57 58.9193C119.35 59.0012 119.143 59.1145 118.955 59.2561C117.999 59.9054 116.87 60.2309 115.726 60.1871C114.967 60.24 114.206 60.1181 113.498 59.8303C112.79 59.5425 112.153 59.096 111.633 58.5231C111.231 58.1381 110.899 57.6818 110.653 57.1761C110.056 55.9446 109.734 54.5908 109.712 53.2142V52.4417H120.357V52.0455C120.381 51.6497 120.381 51.2527 120.357 50.8569C120.354 49.4582 119.991 48.0854 119.306 46.8781C118.62 45.6708 117.637 44.672 116.457 43.9831ZM111.095 50.8371H109.75V49.6684C110.192 46.6772 111.287 44.8944 112.633 44.8944C113.978 44.8944 114.554 46.6574 114.804 49.8863V50.7975H113.651L111.095 50.8371ZM83.4627 43.3294C82.7987 43.3029 82.1387 43.4458 81.5411 43.7454C80.2424 44.3956 79.1934 45.477 78.5626 46.8158L78.3128 47.2913V43.3294H78.2168C77.9862 43.3294 70.8762 44.7953 70.6457 44.8944C70.4151 44.9934 70.4919 45.0132 70.4919 45.3698C70.4919 45.7263 70.4919 45.7858 70.6457 45.8056L71.3951 45.9641C71.605 45.9694 71.8109 46.0238 71.9974 46.1234C72.1838 46.2229 72.3458 46.3649 72.4712 46.5385C72.9516 47.1922 73.0477 48.3412 73.0477 53.234C73.1426 55.4368 73.0526 57.6438 72.7786 59.8305C72.7141 60.1602 72.552 60.4612 72.3145 60.6918C72.077 60.9225 71.7759 61.0714 71.4527 61.1181L70.7994 61.2568H70.5496V61.8114C70.4799 61.9962 70.4799 62.2012 70.5496 62.3859H81.2913V61.8114C81.3286 61.6219 81.3286 61.4265 81.2913 61.237C80.6446 61.211 80.0014 61.1248 79.3697 60.9795C79.0257 60.794 78.7443 60.5054 78.5625 60.1518C78.3807 59.7982 78.307 59.3961 78.3513 58.9985C78.1975 57.8496 78.1207 54.482 78.1591 51.9068C78.1975 49.3316 78.1591 49.1731 78.3705 48.9949C79.0135 48.4866 79.8092 48.2272 80.6188 48.2619C81.3818 48.2791 82.1311 48.4756 82.8094 48.8364C83.0445 48.971 83.2968 49.071 83.5588 49.1335C83.5588 49.1335 85.4804 44.3397 85.4804 44.1218C85.2345 43.8272 84.9212 43.6005 84.5689 43.4621C84.2166 43.3238 83.8364 43.2782 83.4627 43.3294ZM70.5111 51.6493C70.4441 50.2337 70.0498 48.8552 69.3613 47.6285C68.6727 46.4018 67.7098 45.3625 66.5526 44.5972C65.1775 43.8325 63.6476 43.4108 62.0858 43.3661C60.524 43.3214 58.9737 43.6548 57.5596 44.3397C55.5601 45.4266 54.0505 47.2742 53.3513 49.4901C52.6291 51.971 52.6291 54.6159 53.3513 57.0968C53.7299 58.4527 54.4375 59.6867 55.4074 60.6823C56.6153 61.8973 58.1728 62.6758 59.8463 62.901C60.9205 62.9936 62.0003 62.9936 63.0746 62.901C63.4699 62.839 63.8613 62.753 64.2467 62.6434C65.8108 62.1924 67.218 61.2915 68.3036 60.0461C69.3891 58.8007 70.1082 57.2624 70.3766 55.6112C70.5685 54.3002 70.6136 52.9709 70.5111 51.6493ZM62.5173 61.5539C60.5957 62.1482 59.1545 60.2267 58.6741 56.1856C58.4977 54.0699 58.4977 51.9425 58.6741 49.8269C59.0584 46.5781 60.0384 44.934 61.5565 44.934C61.8628 44.9144 62.1691 44.9707 62.45 45.0982C62.7308 45.2258 62.9779 45.4208 63.1706 45.6669C64.4581 46.9941 65.0922 49.6288 65.0922 53.5906C65.2521 55.8328 64.9103 58.0829 64.093 60.1673C63.7321 60.7752 63.1738 61.2314 62.5173 61.4549V61.5539ZM97.1061 43.7256C96.5639 43.6537 96.0149 43.6537 95.4727 43.7256C94.4319 43.7247 93.403 43.9544 92.4558 44.3991L91.8601 44.6566V40.358C91.9642 38.9073 91.9642 37.4507 91.8601 36C91.6295 36 84.289 37.4461 84.1737 37.5055C84.117 37.6518 84.117 37.8149 84.1737 37.9611C84.1737 38.3771 84.1737 38.3573 85.0384 38.5554C85.2812 38.6115 85.5144 38.705 85.7302 38.8327C86.1053 39.1963 86.3549 39.6763 86.4412 40.1996C86.66 41.7071 86.7308 43.2335 86.6526 44.7557V62.1482L87.1714 62.2671C87.94 62.4453 90.1115 62.8217 90.8224 62.901C92.2422 63.0174 93.6686 63.0174 95.0884 62.901C96.6642 62.735 98.1663 62.129 99.4327 61.1481C100.699 60.1672 101.682 58.8487 102.275 57.3346C102.629 56.3628 102.874 55.3526 103.005 54.3236C103.12 52.9297 103.075 51.5268 102.871 50.1438C102.665 48.5936 102.001 47.1462 100.97 45.9981C99.9385 44.8499 98.5896 44.0566 97.1061 43.7256ZM92.0715 61.2172C92.0715 60.9596 91.8793 52.2832 91.9178 48.8166V46.1027L92.475 45.9641C92.851 45.9085 93.2328 45.9085 93.6088 45.9641C94.0246 45.9205 94.4428 46.0178 94.8002 46.2414C95.5178 46.7519 96.1137 47.4237 96.5431 48.206C96.9724 48.9883 97.2241 49.8608 97.279 50.7579C97.419 52.2004 97.419 53.6536 97.279 55.0961C97.164 57.1926 96.3804 59.1913 95.05 60.7814C94.6723 61.1511 94.1981 61.399 93.6856 61.4945C93.2978 61.564 92.9013 61.564 92.5134 61.4945C92.1483 61.4945 92.1483 61.3756 92.1483 61.2172H92.0715Z" fill="white" fill-opacity="0.5"/>
</g>
<defs>
<clipPath id="clip0_97_7650">
<rect width="100" height="27" fill="white" transform="translate(35 36)"/>
</clipPath>
</defs>
</svg>
