<svg width="170" height="100" viewBox="0 0 170 100" fill="none" xmlns="http://www.w3.org/2000/svg">
<path d="M149.72 49.5452C150.266 49.5452 150.48 49.7194 150.616 50.2807C150.987 51.9838 151.844 53.1257 153.384 53.1257C154.767 53.1257 155.664 52.2741 155.664 50.9387C155.664 49.8355 155.099 49.1388 152.935 48.2292C150.597 47.2615 149.389 45.7906 149.389 43.5843C149.389 40.9715 151.24 39.3458 154.066 39.3458C154.982 39.3458 155.761 39.5587 156.385 40.0813C156.404 40.0619 156.404 40.0619 156.424 40.0426C156.599 39.9071 156.794 39.8103 157.008 39.7329C157.223 39.6555 157.437 39.6168 157.671 39.6555C157.671 39.6555 157.612 40.1587 157.749 41.6489C157.807 42.3263 157.905 42.9843 158.022 43.6424H156.852C156.092 41.4747 155.235 40.5651 153.812 40.5651C152.585 40.5651 151.727 41.3006 151.727 42.5392C151.727 43.7778 152.448 44.4746 154.319 45.21C156.852 46.197 158.139 47.5712 158.139 49.8162C158.139 52.4289 156.248 54.345 153.462 54.3643C152.156 54.3837 151.376 54.0934 150.538 53.5128L150.499 53.5515C150.324 53.7063 150.129 53.8224 149.915 53.8998C149.603 53.9966 149.291 54.0547 148.979 54.0547L149.408 49.5452C149.408 49.5452 149.545 49.5452 149.72 49.5452Z" fill="white" fill-opacity="0.5"/>
<path d="M139.898 49.5646C140.444 49.5646 140.658 49.7194 140.795 50.3C141.165 52.0032 142.022 53.145 143.562 53.145C144.945 53.145 145.842 52.2935 145.842 50.958C145.842 49.8549 145.277 49.1582 143.114 48.2485C140.775 47.2808 139.567 45.81 139.567 43.6036C139.567 40.9909 141.418 39.3458 144.244 39.3458C145.082 39.3265 145.9 39.5974 146.563 40.12C146.582 40.1006 146.582 40.1006 146.602 40.0813C146.777 39.9458 146.972 39.849 147.187 39.7716C147.401 39.6942 147.615 39.6555 147.849 39.6942C147.849 39.6942 147.791 40.1974 147.927 41.6876C147.986 42.365 148.083 43.023 148.2 43.6811H147.031C146.271 41.5328 145.413 40.5845 143.991 40.5845C142.763 40.5845 141.905 41.3586 141.905 42.5972C141.905 43.8359 142.626 44.5326 144.497 45.2681C147.031 46.2551 148.317 47.6292 148.317 49.8742C148.317 52.487 146.427 54.403 143.64 54.4224C142.334 54.4417 141.555 54.1514 140.717 53.5708L140.678 53.6095C140.502 53.7643 140.307 53.8805 140.093 53.9579C139.781 54.0546 139.469 54.1127 139.158 54.1127L139.586 49.6033H139.898" fill="white" fill-opacity="0.5"/>
<path d="M134.169 47.4357C134.929 47.4357 135.241 47.6098 135.552 48.0356C135.689 48.2292 135.825 48.4227 135.942 48.6162L135.981 48.6743H136.761V44.6681H135.825C135.825 44.7068 135.825 44.7261 135.825 44.7648C135.63 45.6745 135.318 45.9454 134.013 45.9454L132.473 45.9261V40.9328H135.728C136.117 40.9328 136.195 41.0102 136.234 41.165C136.332 41.4554 136.371 41.6102 136.585 42.1521C136.702 42.5005 136.877 42.8295 137.092 43.1198H138.105L137.715 39.6555H127.543V40.7973H127.582C128.771 40.7973 129.375 41.2618 129.375 42.9649V52.7773L127.972 52.9128L127.894 54.0546H138.222L138.631 49.9903C138.417 49.9323 138.183 49.8936 137.949 49.8936C137.715 49.8742 137.501 50.0097 137.404 50.2226C137.306 50.4742 137.15 50.8806 136.916 51.4806C136.507 52.4676 135.962 52.7386 134.461 52.7386H132.746C132.512 52.7386 132.473 52.6224 132.473 52.4096V47.4163L134.169 47.4357Z" fill="white" fill-opacity="0.5"/>
<path d="M120.138 40.8167C122.223 40.8167 123.451 41.6489 123.451 43.4294C123.451 45.5583 122.047 46.3131 120.099 46.3131H120.04V40.7973H120.138M126.023 49.8936C125.77 48.384 124.6 47.1841 123.08 46.8744C123.08 46.8744 123.08 46.855 123.119 46.8357C124.756 46.4293 126.627 45.1326 126.627 43.2746C126.627 40.5264 124.133 39.6748 120.196 39.6748H115.383V40.8167H115.441C116.435 40.8167 116.942 41.5328 116.942 42.9069V52.7966L115.558 52.9321L115.48 54.074H121.755L121.853 52.9128H121.716C120.157 52.9128 120.021 52.874 120.021 51.5386V47.5518C120.04 47.5518 120.079 47.5711 120.099 47.5518C121.716 47.5518 122.535 48.113 122.866 49.5646C123.022 50.2032 123.061 50.7645 123.217 51.5386C123.587 53.5127 124.249 54.0933 126.393 54.0933C126.608 54.0933 126.744 54.074 126.9 54.074C127.095 54.074 127.348 54.0546 127.348 54.0546L127.426 52.9128C126.646 52.9128 126.452 52.6805 126.296 51.5967C126.159 50.629 126.14 50.4935 126.023 49.8936Z" fill="white" fill-opacity="0.5"/>
<path d="M104.119 40.8167C105.249 40.8167 105.756 41.4941 105.736 42.8682V52.7966L104.45 52.9128L104.372 54.074H111.095L111.193 52.9321H110.803C108.932 52.9321 108.796 52.7773 108.815 51.3257V47.8808C108.835 47.9001 108.874 47.9195 108.893 47.9195C112.245 48.713 115.383 47.0486 115.383 43.623C115.383 40.5844 112.849 39.6748 108.952 39.6748H104.099L104.119 40.8167ZM108.874 40.8167C110.939 40.8167 112.342 41.6682 112.342 43.7971C112.342 45.9067 110.939 46.9131 108.932 46.7389C108.893 46.7389 108.854 46.7389 108.835 46.7196V40.8167H108.874Z" fill="white" fill-opacity="0.5"/>
<path d="M98.5257 40.8167V39.6748H103.476V40.8167L101.936 40.9715L98.4867 46.0422C98.4867 46.0422 101.8 51.2483 102.228 51.9064C102.696 52.6418 103.047 52.9128 103.592 52.9128C103.768 52.9128 103.924 52.9128 103.924 52.9128L103.846 54.0546H97.4928L97.5708 52.9128L99.0129 52.7966L96.5184 48.8098C96.5184 48.8098 94.6476 51.6354 94.2773 52.1967C93.946 52.6999 93.985 52.8547 94.4917 52.8547L95.9338 52.9321L95.8558 54.074H90.5162L90.6331 52.9321L92.1921 52.7966L95.7974 47.5518C95.7974 47.5518 92.7183 42.5779 92.1532 41.6489C91.7634 41.0296 91.3152 40.7973 90.4967 40.7973V39.6748H96.9666V40.8167L95.4661 40.9715L97.7461 44.8616L99.8703 41.5521C100.143 41.1263 100.085 40.9328 99.6754 40.8941L98.5257 40.8167Z" fill="white" fill-opacity="0.5"/>
<path d="M85.8196 47.4357C86.5796 47.4357 86.8914 47.5905 87.2032 48.0356C87.3396 48.2292 87.4761 48.4227 87.593 48.6162L87.632 48.6743H88.4115V44.6681H87.4761C87.4761 44.7068 87.4761 44.7261 87.4761 44.7648C87.2812 45.6745 86.9694 45.9454 85.6637 45.9454L84.1242 45.9261V40.9328H87.3202C87.7099 40.9328 87.8268 40.9715 87.8853 41.1263C87.9827 41.4166 88.0412 41.6102 88.2361 42.1521C88.353 42.5005 88.5284 42.8295 88.7428 43.1198H89.7756L89.3859 39.6555H79.2133V40.7973H79.2717C80.4605 40.7973 81.0646 41.2425 81.0646 42.9456V52.7773L79.5446 52.9128L79.4666 54.0546H89.8925L90.3018 49.9903C90.0874 49.9323 89.8536 49.8936 89.6197 49.9129C89.3859 49.8936 89.1715 50.0291 89.0741 50.2419C88.9766 50.4935 88.8207 50.9 88.5869 51.4999C88.1776 52.487 87.632 52.7579 86.1314 52.7579H84.4165C84.1826 52.7579 84.1437 52.6418 84.1437 52.4289V47.4163H85.8196" fill="white" fill-opacity="0.5"/>
<path fill-rule="evenodd" clip-rule="evenodd" d="M65.5134 57.6737C66.0396 58.9511 66.7606 59.8801 67.9104 60.7703L67.9494 60.751C69.8202 60.5768 71.691 59.3575 72.3536 58.4866H78.4143C78.5117 58.3705 78.5507 58.2544 78.5312 58.1189C78.5312 57.7512 77.1281 55.8545 77.1281 55.8545C77.6348 55.6416 77.7517 55.5835 78.122 55.0997C78.3385 54.516 78.2604 54.0543 78.1703 53.521C78.1469 53.3822 78.1226 53.2387 78.1025 53.0869C77.7322 51.1709 77.1866 49.4484 76.7189 48.5001C76.3705 47.7937 75.9464 47.3235 75.656 47.0016C75.5566 46.8914 75.4728 46.7985 75.4132 46.7195C75.2378 46.4873 75.0039 46.197 74.887 46.0809C74.8567 45.9945 74.8272 45.9168 74.7996 45.8441C74.6848 45.5422 74.6023 45.3252 74.6337 44.9196C74.6531 44.6293 74.6921 44.339 74.7311 44.0874C74.8091 43.8552 74.848 43.6229 74.8675 43.3907L74.887 43.41V43.352C74.9309 43.3084 74.9439 43.2524 74.9573 43.1946C74.9677 43.1498 74.9784 43.1039 75.0039 43.0617L75.0624 42.0553L75.2378 41.8424C75.3037 41.7115 75.2164 41.5253 75.1525 41.389C75.1408 41.3641 75.1299 41.3408 75.1209 41.3198C75.0404 41.2266 74.9715 41.1288 74.9037 41.0327C74.7747 40.8495 74.65 40.6726 74.4583 40.5457C74.0685 40.1199 73.6788 39.6941 73.2695 39.2877C73.1071 39.2186 72.9585 39.2729 72.8073 39.3282C72.7044 39.3658 72.6004 39.4038 72.49 39.4038C72.4737 39.4038 72.4609 39.4173 72.4486 39.4302C72.4314 39.4482 72.4153 39.4651 72.3926 39.4425C72.1776 39.5058 71.943 39.5497 71.7062 39.594C71.3636 39.6581 71.0163 39.7231 70.7166 39.849C70.5217 39.9457 70.3464 40.1006 70.2489 40.2941C70.2281 40.4733 70.1949 40.6501 70.1617 40.8271C70.1016 41.1469 70.0415 41.4673 70.054 41.8037C70.054 41.8305 70.0747 41.8737 70.0952 41.9163C70.119 41.9661 70.1425 42.0151 70.132 42.0359C69.98 42.212 70.0585 42.3391 70.1428 42.4755C70.1882 42.549 70.2353 42.6252 70.2489 42.7133C70.2294 42.8101 70.1905 42.9068 70.132 43.0036C69.992 43.3195 70.1013 43.6024 70.2103 43.8846C70.2682 44.0346 70.3261 44.1845 70.3464 44.339C70.3464 44.339 70.2684 45.2099 70.5217 45.3454C70.3853 45.4615 70.2099 45.5583 70.0346 45.6357C69.7497 45.1878 69.5444 44.905 69.3129 44.5862C69.1643 44.3815 69.0049 44.1621 68.8068 43.8745C68.7641 43.7897 68.7136 43.7126 68.6638 43.6366C68.5774 43.5047 68.4932 43.3762 68.456 43.2165C68.3781 43.0036 68.3391 42.7907 68.3391 42.5585L67.4427 41.7843L65.9226 40.236L65.4744 39.7715C65.6788 40.7104 66.0004 41.6409 66.2966 42.4976C66.4522 42.9479 66.6008 43.3778 66.7216 43.7778C66.8683 43.836 66.9953 43.8602 67.1101 43.882C67.2241 43.9037 67.3261 43.9231 67.4232 43.9713L67.4232 43.9713C67.5791 44.0487 67.735 44.1261 67.8909 44.2229C68.0273 44.3197 68.6509 45.3067 68.6509 45.3067C68.9043 45.6551 69.1186 46.0228 69.3135 46.4099C69.2161 46.5453 69.1381 46.7002 69.0991 46.855L68.9238 46.8357C68.8653 46.855 68.7873 46.8357 68.7484 46.7969C68.0459 46.7419 67.3434 46.7042 66.6576 46.6674C66.6204 46.6655 66.5833 46.6635 66.5462 46.6615L66.6437 46.6421C66.5657 46.6228 66.4683 46.6228 66.3903 46.6421C66.2929 47.0776 66.1906 47.513 66.0883 47.9485C65.986 48.384 65.8837 48.8194 65.7862 49.2549C65.7593 49.2994 65.7572 49.3522 65.7551 49.4038C65.7527 49.4641 65.7503 49.5228 65.7083 49.5645C65.6652 49.7897 65.6222 50.0116 65.5795 50.2312C65.3328 51.5025 65.1007 52.6985 64.9677 54.0352C64.8313 55.3126 65.1042 56.5319 65.5134 57.6737ZM75.3428 55.9842L75.2962 55.99L75.2879 56.0069L75.2797 56.0235C75.2456 56.0938 75.2073 56.1723 75.1403 56.2223C75.1403 56.319 75.1013 56.3964 75.0624 56.4739C75.1079 56.5372 75.1407 56.6048 75.1727 56.6707L75.1727 56.6707C75.209 56.7457 75.2443 56.8185 75.2962 56.8803C75.4261 57.1641 75.5387 57.448 75.6513 57.7318C75.7076 57.8738 75.7639 58.0157 75.8224 58.1576H74.7506H72.7628C72.7238 58.1673 72.6751 58.1625 72.6264 58.1576C72.5777 58.1528 72.529 58.148 72.49 58.1576L72.2561 58.1383C72.3048 58.0996 72.3438 58.0512 72.3828 58.0028L72.3828 58.0028C72.4218 57.9544 72.4607 57.906 72.5095 57.8673C72.8918 57.8596 73.268 57.8642 73.6429 57.8689H73.643C74.2043 57.8759 74.7627 57.8828 75.3352 57.848C75.1988 57.3641 74.9844 56.919 74.7116 56.5126L74.3803 56.1255C74.2439 56.0674 74.0977 56.0239 73.9516 55.9803C73.8054 55.9368 73.6592 55.8932 73.5228 55.8352L73.8346 54.7127C74.3608 54.8675 74.8675 55.0417 75.3547 55.2739C76.1732 53.9192 76.7383 52.3902 76.6214 50.6677L76.5629 50.1065C76.5434 50.0775 76.5434 50.0484 76.5434 50.0194C76.5434 49.9904 76.5434 49.9613 76.5239 49.9323C76.368 48.9453 75.9198 48.0163 75.2572 47.2615C75.2572 47.2842 75.2706 47.3002 75.2817 47.3135C75.2895 47.3229 75.2962 47.3309 75.2962 47.3389C75.3034 47.3744 75.3125 47.4105 75.3216 47.4468L75.3216 47.4468C75.3624 47.6086 75.404 47.7737 75.2767 47.9002C75.1598 48.0356 74.9649 48.0743 74.7895 47.9969C74.5018 47.7857 74.2622 47.4947 74.0245 47.2059C73.8919 47.0448 73.7598 46.8844 73.6203 46.7389C73.1136 46.1777 72.4705 45.6358 71.691 45.6745C71.4182 45.6745 71.1258 45.7132 70.853 45.81C70.84 45.8229 70.8443 45.8358 70.8487 45.8487C70.8508 45.8551 70.853 45.8616 70.853 45.868C71.2817 45.9454 71.691 46.139 72.0418 46.3906C72.529 46.797 72.8797 47.3583 73.0356 47.9582C72.7238 47.8615 72.3925 47.7647 72.0613 47.6873C72.0784 47.6702 72.099 47.6565 72.1189 47.6432C72.1669 47.6111 72.2114 47.5814 72.1977 47.5131C72.1488 47.4645 72.0845 47.454 72.0194 47.4434C71.9807 47.4371 71.9417 47.4307 71.9053 47.4163H71.8079C71.8079 47.5324 71.9443 47.6486 72.0223 47.6873L72.0223 47.6873C71.9248 47.6486 71.8274 47.6099 71.73 47.5905C71.7884 47.5324 71.73 47.4744 71.6715 47.4744C71.6185 47.4832 71.5695 47.476 71.5227 47.4692C71.4662 47.461 71.413 47.4532 71.3597 47.4744L71.3987 47.5131C71.3012 47.4937 71.2233 47.4744 71.1453 47.4357C71.2038 47.4163 71.2038 47.3776 71.2038 47.3196V47.3195C71.1725 47.2962 71.1318 47.2916 71.0905 47.287C71.0289 47.28 70.966 47.2729 70.931 47.2034H70.9115C70.9115 47.2228 70.931 47.2421 70.9504 47.2615C70.9328 47.2556 70.9169 47.2463 70.9023 47.2376C70.8685 47.2177 70.8412 47.2016 70.814 47.2421C70.814 47.3002 70.8725 47.3583 70.9115 47.3776L70.9894 47.397C70.7084 47.3505 70.4184 47.2905 70.1259 47.2301C69.8098 47.1648 69.4908 47.0989 69.1771 47.0486C69.3135 46.8357 69.4499 46.6228 69.6253 46.4293C69.4737 46.1156 69.273 45.8264 69.0709 45.5352L69.0709 45.5352L69.0709 45.5352C68.9612 45.3772 68.8512 45.2186 68.7483 45.0552L68.0663 44.1068C68.0212 44.0749 67.9804 44.0387 67.9404 44.0032C67.8591 43.9311 67.7809 43.8618 67.6765 43.8359C67.4427 43.7004 67.1893 43.5649 66.9165 43.4875C66.6047 42.4424 66.2344 41.4167 65.7862 40.4103L66.1759 40.8361L67.5596 42.2489L68.0468 42.7134C68.0468 42.9069 68.0857 43.1198 68.1442 43.3133C68.1683 43.4566 68.2443 43.5705 68.3218 43.6867L68.3218 43.6867C68.37 43.7588 68.4187 43.8318 68.456 43.9133C68.5761 44.0822 68.6962 44.2486 68.8156 44.4141C69.1613 44.8931 69.5015 45.3645 69.8202 45.868C69.8313 45.8846 69.8456 45.9012 69.8599 45.9178C69.8957 45.9593 69.9315 46.0007 69.9176 46.0422V46.0616C69.9629 46.0435 69.9998 46.0046 70.0381 45.9642C70.0821 45.9177 70.1279 45.8694 70.1904 45.8487C70.4633 45.6745 70.7556 45.5584 71.0674 45.5003L71.1063 45.5197C71.1293 45.4855 71.1117 45.458 71.0934 45.4293C71.0806 45.4093 71.0674 45.3887 71.0674 45.3648C71.0595 45.3492 71.0454 45.3431 71.0325 45.3375C71.0134 45.3292 70.9973 45.3221 71.0089 45.2874L70.9894 45.2816C70.7951 45.2241 70.5217 45.143 70.5217 44.881L70.4633 44.2423C70.4491 44.0951 70.3941 43.953 70.339 43.8105C70.2418 43.5594 70.1441 43.307 70.2684 43.023C70.2944 42.9972 70.303 42.9714 70.3117 42.9456L70.3117 42.9456C70.316 42.9327 70.3203 42.9198 70.3268 42.9069H70.3074C70.3463 42.8875 70.3658 42.8295 70.3853 42.7714C70.3784 42.6889 70.3395 42.6089 70.301 42.5296C70.231 42.3855 70.1622 42.2438 70.2879 42.094C70.3268 42.0553 70.3268 42.0166 70.3268 41.9779V41.9779C70.3073 41.9973 70.2294 41.9973 70.2294 41.9392C70.2176 41.657 70.2705 41.3748 70.3225 41.097C70.3562 40.9175 70.3895 40.7398 70.4048 40.5651C70.4827 40.3909 70.6386 40.2554 70.814 40.1587C71.0768 40.0499 71.3703 39.9962 71.6635 39.9425C71.8922 39.9006 72.1206 39.8588 72.3341 39.791C72.3558 39.8017 72.3715 39.7885 72.3878 39.7746C72.4008 39.7636 72.4143 39.7522 72.4315 39.7522C72.5366 39.7522 72.6316 39.7156 72.7249 39.6797C72.8566 39.6289 72.9848 39.5795 73.1331 39.6361C73.5033 40.0038 73.8541 40.3909 74.2049 40.778C74.3599 40.8845 74.4638 41.0345 74.5702 41.1881C74.6378 41.2856 74.7063 41.3845 74.7895 41.4747C74.7952 41.486 74.8013 41.4977 74.8075 41.5096C74.8653 41.6209 74.9379 41.7607 74.8675 41.9005L74.77 42.0166L74.6726 43.0811C74.6576 43.1109 74.6513 43.1465 74.6447 43.1833C74.6342 43.2422 74.6231 43.3044 74.5752 43.352V43.3714C74.5557 43.5843 74.5167 43.7972 74.4582 44.0101C74.4444 44.0928 74.4255 44.1779 74.4062 44.2655L74.4062 44.2655C74.3712 44.424 74.3344 44.5904 74.3218 44.7649C74.3218 45.21 74.3998 45.6551 74.5557 46.0809C74.6 46.125 74.6282 46.177 74.6568 46.2298C74.691 46.293 74.7258 46.3572 74.7895 46.4099C74.9202 46.564 75.0577 46.7181 75.1977 46.875L75.1978 46.8751C75.3919 47.0926 75.5909 47.3157 75.7834 47.5518L76.1537 48.0356C76.1732 48.0937 76.1927 48.1324 76.2511 48.1711C76.943 49.2704 77.2345 50.5384 77.5277 51.8134C77.6062 52.1546 77.6848 52.4963 77.7712 52.8354C77.7889 52.9851 77.8147 53.1399 77.841 53.2977C77.9303 53.833 78.0253 54.4024 77.8296 54.9256C77.5178 55.3707 77.0306 55.5836 76.5629 55.7578C76.7702 56.0627 76.9865 56.3646 77.2023 56.6659L77.2024 56.6659C77.5345 57.1295 77.8656 57.5916 78.1609 58.0609C78.1804 58.0996 78.1804 58.1383 78.1804 58.177C78.044 58.177 77.8978 58.1673 77.7517 58.1576C77.6055 58.148 77.4594 58.1383 77.3229 58.1383C76.8552 57.4028 76.368 56.648 75.8419 55.9513C75.8377 55.9513 75.8317 55.9522 75.8248 55.9532C75.7999 55.957 75.7639 55.9623 75.7639 55.932C75.7444 55.932 75.7444 55.932 75.7444 55.9513C75.6043 55.9513 75.4799 55.9669 75.3429 55.9842L75.3428 55.9842ZM70.6971 46.4486L70.6192 46.4099C70.5674 46.3842 70.5195 46.4078 70.4703 46.432C70.4083 46.4625 70.3444 46.494 70.2684 46.4293V46.5067C70.3131 46.5067 70.3619 46.5311 70.4072 46.5538C70.4608 46.5806 70.5096 46.6051 70.5412 46.5841C70.5664 46.5674 70.588 46.5436 70.609 46.5203L70.609 46.5203C70.6369 46.4895 70.6638 46.4596 70.6971 46.4486ZM70.4438 46.139L70.2294 46.1196C70.1904 46.1196 70.1709 46.139 70.1904 46.197C70.2026 46.2334 70.2377 46.2318 70.2718 46.2303C70.2922 46.2294 70.3122 46.2285 70.3268 46.2357C70.3408 46.2218 70.3649 46.2179 70.3881 46.2141C70.4297 46.2074 70.4687 46.201 70.4438 46.139ZM70.054 46.468C70.093 46.468 70.1125 46.4293 70.093 46.3906C70.054 46.3519 69.9761 46.3519 69.9176 46.3712C69.9176 46.4332 69.9675 46.4455 70.0174 46.4579C70.0298 46.461 70.0423 46.4641 70.054 46.468ZM68.8068 44.9584C68.8458 44.939 68.8847 44.9197 68.9042 44.881C68.9237 44.8616 68.9627 44.881 68.9432 44.881C68.8312 44.6586 68.6926 44.4494 68.5542 44.2409C68.2833 43.8323 68.0138 43.4259 67.9493 42.9263C67.9422 42.9121 67.9455 42.8927 67.9488 42.8738C67.9544 42.8412 67.9597 42.8101 67.9104 42.8101C67.4882 42.4508 67.1127 42.0566 66.7297 41.6546L66.7296 41.6546L66.7296 41.6546C66.6176 41.537 66.505 41.4188 66.3903 41.3005C66.3736 41.234 66.3136 41.196 66.2599 41.1621L66.2599 41.1621C66.2512 41.1566 66.2426 41.1511 66.2344 41.1457L66.2929 41.2038L66.9749 43.0811C66.9944 43.1972 67.0724 43.294 67.1698 43.352H67.1893C67.2478 43.352 67.2867 43.3327 67.3062 43.2746C67.2361 43.0424 67.1449 42.8101 67.0537 42.5779L67.0537 42.5779L67.0537 42.5779L67.0537 42.5779C66.9929 42.423 66.9321 42.2682 66.8775 42.1134C67.1114 42.4231 67.3452 42.7521 67.5401 43.1004C67.9688 43.7004 68.3976 44.3197 68.8068 44.939V44.9584L68.8068 44.9584ZM69.5478 47.0935C69.5619 47.0975 69.5756 47.1013 69.5863 47.1067C69.5937 47.0919 69.604 47.0799 69.6128 47.0697C69.627 47.0532 69.6373 47.0412 69.6253 47.0292C69.605 47.0292 69.5847 47.0223 69.5653 47.0156C69.5286 47.0029 69.4948 46.9913 69.4694 47.0292C69.4694 47.0713 69.5104 47.0829 69.5478 47.0935ZM68.9822 45.1519C69.216 45.5197 69.4694 45.9067 69.7227 46.2551C69.7769 46.2685 69.7934 46.2259 69.8115 46.1792C69.8195 46.1586 69.8278 46.1373 69.8396 46.1196C69.6253 45.7906 69.3914 45.4422 69.1576 45.1326C69.1381 45.0745 69.0406 45.0358 69.0601 45.1132C69.0304 45.0837 69.012 45.1106 68.9962 45.1335C68.9914 45.1406 68.9868 45.1474 68.9822 45.1519ZM69.9157 46.674C69.8721 46.6577 69.8305 46.6422 69.7812 46.6422L69.8007 46.7002V46.7196C69.8202 46.7776 69.8981 46.797 69.9566 46.7776C69.964 46.7629 69.9629 46.7481 69.962 46.7354C69.9605 46.715 69.9594 46.7002 69.9955 46.7002C69.967 46.6931 69.941 46.6834 69.9157 46.674L69.9157 46.674ZM69.9475 47.1516L69.9475 47.1516L69.9475 47.1516C69.9758 47.1604 70.0052 47.1695 70.0345 47.1841C70.0682 47.1729 70.0825 47.1554 70.0959 47.1388C70.1059 47.1266 70.1154 47.1149 70.132 47.1067C70.0775 47.0742 70.023 47.0659 69.9719 47.0582C69.9316 47.0521 69.8935 47.0463 69.8591 47.0292L69.8202 47.0873C69.8566 47.1235 69.9006 47.1371 69.9475 47.1516ZM70.132 46.6809C70.1709 46.7389 70.2099 46.797 70.2489 46.8357C70.3165 46.8894 70.3841 46.85 70.4452 46.8143C70.4722 46.7986 70.4979 46.7836 70.5217 46.7776C70.3853 46.7776 70.2489 46.7389 70.132 46.6809ZM70.3921 47.1745C70.403 47.1806 70.4134 47.1864 70.4048 47.2034C70.5022 47.2421 70.6386 47.2421 70.7361 47.1841C70.7181 47.1662 70.7209 47.1484 70.7233 47.1324C70.7262 47.1138 70.7286 47.0977 70.6971 47.0873H70.6971C70.5802 47.0873 70.4438 47.0873 70.3268 47.0486C70.3268 47.0782 70.3496 47.0964 70.369 47.112L70.369 47.1121L70.369 47.1121C70.375 47.1169 70.3807 47.1215 70.3853 47.126C70.3635 47.1585 70.3783 47.1667 70.3921 47.1745ZM70.814 47.0099C70.9115 47.0486 71.0284 47.0486 71.1258 47.0099V46.9518C71.1007 46.9393 71.0836 46.943 71.0642 46.9471C71.0536 46.9494 71.0422 46.9518 71.0284 46.9518C70.9808 46.9234 70.9285 46.9136 70.8783 46.9041C70.8259 46.8942 70.7759 46.8847 70.7361 46.8551C70.7279 46.8714 70.7127 46.8774 70.6979 46.8832C70.6776 46.8912 70.6581 46.8989 70.6581 46.9325C70.6874 46.9422 70.7117 46.9567 70.7361 46.9712C70.7604 46.9857 70.7848 47.0002 70.814 47.0099ZM71.4193 47.3376C71.4524 47.3501 71.4853 47.3626 71.5156 47.3776C71.5234 47.3621 71.5437 47.359 71.5639 47.3559C71.5943 47.3513 71.6247 47.3466 71.613 47.3002C71.5782 47.2915 71.5667 47.2558 71.556 47.2224C71.5427 47.1811 71.5305 47.1433 71.4766 47.1647C71.4182 47.1647 71.3597 47.1454 71.3012 47.126L71.3012 47.126C71.2622 47.0873 71.2038 47.126 71.1843 47.1647C71.2276 47.2651 71.3245 47.3017 71.4193 47.3376ZM71.3649 46.9562C71.4228 47.0005 71.4835 47.047 71.5546 46.9905C71.5753 46.9495 71.6124 46.9411 71.6456 46.9336C71.675 46.9269 71.7013 46.921 71.7105 46.8938C71.6469 46.8938 71.5917 46.8685 71.5372 46.8435C71.4747 46.8149 71.413 46.7867 71.3402 46.797C71.2817 46.8164 71.2233 46.8744 71.3012 46.9131C71.3223 46.9236 71.3434 46.9398 71.3649 46.9562L71.3649 46.9562ZM71.6715 47.1067C71.691 47.2034 71.7689 47.2421 71.8469 47.2808C71.8749 47.2623 71.9119 47.2571 71.9449 47.2524C71.9808 47.2473 72.0121 47.2429 72.0223 47.2228C71.9963 47.197 71.9703 47.1884 71.9443 47.1798L71.9443 47.1798C71.9313 47.1755 71.9183 47.1712 71.9053 47.1647C71.8469 47.1647 71.8079 47.126 71.7689 47.068C71.743 47.0421 71.717 47.068 71.6968 47.088C71.6867 47.0981 71.678 47.1067 71.6715 47.1067ZM72.7591 47.6704C72.761 47.6621 72.7628 47.6544 72.7628 47.6486L72.7433 47.6099C72.6696 47.5611 72.5959 47.5815 72.5173 47.6032C72.4713 47.616 72.4235 47.6292 72.3731 47.6292C72.3731 47.6679 72.3536 47.7066 72.3341 47.726C72.3813 47.726 72.4331 47.7491 72.4848 47.7722C72.5825 47.8159 72.6796 47.8592 72.7433 47.7453C72.7628 47.784 72.8018 47.726 72.8018 47.726C72.8018 47.726 72.7823 47.7066 72.7628 47.726C72.7492 47.7125 72.7546 47.6896 72.7591 47.6704ZM72.451 47.2228L72.451 47.2228V47.2034C72.4137 47.2497 72.3631 47.2473 72.3119 47.2449C72.256 47.2422 72.1994 47.2396 72.1587 47.3002C72.2063 47.4263 72.3314 47.4369 72.4499 47.4469C72.4769 47.4492 72.5036 47.4514 72.529 47.455L72.5484 47.397C72.5484 47.3195 72.49 47.2615 72.451 47.2228ZM72.2756 46.8744H72.2561C72.2045 46.7924 72.1748 46.8244 72.138 46.864C72.1052 46.8992 72.067 46.9404 72.0028 46.9131C71.9791 46.9485 71.9409 46.9408 71.9058 46.9337C71.8833 46.9292 71.8621 46.9249 71.8469 46.9325C71.8469 46.9518 71.8469 46.9712 71.8664 46.9905C71.9638 47.0486 72.0418 47.0679 72.1392 47.0873C72.1605 47.0732 72.1896 47.0694 72.2189 47.0655C72.27 47.0588 72.3217 47.052 72.3341 46.9905L72.2756 46.8744ZM71.9295 46.5504L71.9295 46.5504C71.9067 46.544 71.8839 46.5377 71.8664 46.526C71.8448 46.5904 71.7753 46.5953 71.7076 46.6001C71.6533 46.6039 71.6001 46.6077 71.5741 46.6422L71.6325 46.7002C71.7884 46.7583 71.9638 46.7389 72.1002 46.6422C72.0917 46.6464 72.0841 46.6507 72.0772 46.6545L72.0772 46.6545C72.0527 46.6681 72.0375 46.6766 72.0223 46.6615C72.0359 46.5802 71.9827 46.5653 71.9295 46.5504ZM71.4571 46.3325C71.4182 46.3712 71.3597 46.3906 71.3402 46.3712L71.2623 46.4486C71.3597 46.5067 71.4961 46.5067 71.613 46.4873C71.6715 46.468 71.7105 46.4099 71.691 46.3519L71.652 46.3132C71.5935 46.2938 71.5156 46.2938 71.4571 46.3325ZM70.9197 46.6833C70.9642 46.7019 71.0105 46.7212 71.0479 46.7583C71.0707 46.7356 71.1055 46.7247 71.1393 46.7142C71.1921 46.6976 71.2428 46.6818 71.2428 46.6228C71.1895 46.5567 71.118 46.5809 71.0532 46.6029C71.0232 46.6131 70.9946 46.6228 70.9699 46.6228C70.9393 46.6228 70.9147 46.6079 70.8925 46.5944C70.8583 46.5737 70.83 46.5565 70.7945 46.6035C70.825 46.6438 70.8713 46.6631 70.9197 46.6833ZM71.2038 46.1196L71.1453 46.1583C71.098 46.1489 71.0506 46.1624 71.001 46.1765C70.9486 46.1914 70.8936 46.207 70.8335 46.197C70.8164 46.2055 70.7993 46.2028 70.7839 46.2004C70.7641 46.1973 70.747 46.1946 70.7361 46.2164C70.7556 46.3519 70.9115 46.3906 71.0284 46.4099L71.2038 46.2938C71.2171 46.254 71.1939 46.2143 71.178 46.1869C71.1706 46.1744 71.1648 46.1644 71.1648 46.1583C71.1648 46.1495 71.1771 46.1446 71.1885 46.1402C71.202 46.1349 71.2143 46.1301 71.2038 46.1196ZM75.1793 47.4163L75.1988 47.3389C75.1751 47.3467 75.1578 47.3228 75.1417 47.3006C75.1181 47.268 75.0972 47.2389 75.0624 47.3195C75.0624 47.3195 75.1013 47.3196 75.0819 47.3389C75.0689 47.3518 75.0559 47.3475 75.0429 47.3432C75.0364 47.3411 75.0299 47.3389 75.0234 47.3389C75.0054 47.3656 74.9751 47.3678 74.9457 47.3698C74.9112 47.3722 74.878 47.3745 74.8675 47.4163C74.879 47.4393 74.9043 47.4418 74.927 47.4441C74.9426 47.4457 74.957 47.4471 74.9649 47.455C74.9795 47.455 74.9978 47.4587 75.0176 47.4626C75.077 47.4744 75.1501 47.4889 75.1793 47.4163ZM74.5167 47.126L74.5557 47.1841C74.6025 47.1763 74.6492 47.1841 74.6923 47.1912C74.7568 47.2019 74.8129 47.2112 74.848 47.1647C74.848 47.1137 74.8029 47.0926 74.7655 47.0751L74.7506 47.068C74.7159 47.0852 74.6813 47.0871 74.6466 47.089C74.6033 47.0914 74.56 47.0938 74.5167 47.126ZM75.0861 47.0403C75.0728 47.0175 75.0624 46.9995 75.0624 46.9712C75.0039 46.8551 74.887 46.9325 74.8285 47.0099V47.0292C74.887 47.068 74.9454 47.0873 75.0234 47.0873L75.0429 47.1067C75.0506 47.099 75.0613 47.0974 75.0714 47.0959C75.087 47.0935 75.1013 47.0914 75.1013 47.068C75.0961 47.0576 75.0909 47.0486 75.0861 47.0403ZM74.8675 46.8551C74.8675 46.797 74.8285 46.7196 74.77 46.6809C74.7374 46.6485 74.7169 46.6643 74.695 46.6813C74.6777 46.6947 74.6594 46.7088 74.6336 46.7002C74.6141 46.7002 74.5752 46.7002 74.5752 46.7389C74.6141 46.7776 74.6531 46.797 74.7116 46.797C74.7311 46.8164 74.7554 46.826 74.7798 46.8357C74.8041 46.8454 74.8285 46.8551 74.848 46.8744L74.8675 46.8551ZM74.6537 46.478C74.6487 46.4555 74.643 46.4301 74.6531 46.4099C74.6436 46.4036 74.6337 46.3964 74.6234 46.3889L74.6234 46.3888C74.5704 46.3502 74.5104 46.3064 74.4777 46.3712C74.468 46.3906 74.4534 46.3857 74.4388 46.3809C74.4241 46.3761 74.4095 46.3712 74.3998 46.3906C74.3998 46.5014 74.4708 46.5025 74.5426 46.5037C74.5836 46.5043 74.6248 46.5049 74.6531 46.526C74.6625 46.5168 74.6584 46.4986 74.6537 46.478ZM74.4281 46.79C74.4256 46.7759 74.4239 46.7657 74.3998 46.7776C74.3746 46.7943 74.3423 46.7895 74.3104 46.7847C74.2683 46.7784 74.2271 46.7722 74.2049 46.8164C74.2146 46.8357 74.2341 46.8502 74.2536 46.8647C74.2731 46.8793 74.2926 46.8938 74.3023 46.9131C74.3104 46.9158 74.3188 46.9188 74.3275 46.9219C74.3822 46.9417 74.4495 46.9659 74.5167 46.9325C74.5167 46.8938 74.4582 46.8357 74.4388 46.8164C74.4313 46.809 74.4296 46.7987 74.4281 46.79ZM74.0815 46.5562C74.0714 46.5737 74.0611 46.5914 74.049 46.6035C74.0885 46.5956 74.1279 46.6005 74.1661 46.6052C74.2222 46.6121 74.2754 46.6187 74.3218 46.5841L74.3023 46.5454C74.2726 46.5454 74.2681 46.5253 74.2631 46.503C74.2583 46.4816 74.2531 46.4581 74.2244 46.4486L74.1659 46.5067C74.1257 46.48 74.1039 46.5176 74.0815 46.5562ZM74.3413 46.2551C74.3998 46.2551 74.4388 46.197 74.4388 46.139C74.4254 46.119 74.4166 46.0968 74.4084 46.0762C74.3929 46.0369 74.3797 46.0035 74.3413 46.0035C74.3413 46.0776 74.2947 46.0822 74.246 46.087C74.2057 46.091 74.1641 46.0951 74.1464 46.139C74.1854 46.2164 74.2439 46.2551 74.3218 46.2551H74.3413ZM74.3352 45.7918L74.3352 45.7918C74.3439 45.778 74.3524 45.7645 74.3608 45.7519C74.3129 45.736 74.3173 45.7072 74.3205 45.6866C74.3212 45.6821 74.3218 45.678 74.3218 45.6745C74.3218 45.6551 74.3023 45.6358 74.2829 45.6358C74.2634 45.6164 74.2244 45.6358 74.2244 45.6745C74.2143 45.7447 74.1623 45.7421 74.1092 45.7395C74.0598 45.7371 74.0093 45.7346 73.9905 45.7906C74.0062 45.8993 74.0845 45.9083 74.1652 45.9176L74.1652 45.9176C74.1851 45.9199 74.2051 45.9223 74.2244 45.9261C74.2702 45.8958 74.304 45.8417 74.3352 45.7918L74.3352 45.7918L74.3352 45.7918ZM73.289 44.7649C73.1721 44.7261 73.0356 44.7262 72.9187 44.7455C72.9075 44.7788 72.9348 44.793 72.9675 44.81C72.9917 44.8227 73.019 44.8369 73.0356 44.8616C73.1331 44.9003 73.2305 44.881 73.3085 44.8229C73.3328 44.8108 73.3191 44.7987 73.3054 44.7866C73.2972 44.7794 73.289 44.7721 73.289 44.7649ZM72.8998 45.1969C72.9323 45.1938 72.965 45.1906 72.9967 45.1906V45.1519C73.008 45.1294 72.9995 45.1134 72.9905 45.0963C72.984 45.0841 72.9772 45.0713 72.9772 45.0552C72.9772 44.9777 72.8408 44.9777 72.8213 45.0552H72.8213C72.8018 45.0552 72.7628 45.0552 72.7238 45.0358C72.7141 45.0407 72.7031 45.0443 72.6922 45.0479C72.6593 45.0588 72.6264 45.0697 72.6264 45.1132C72.6863 45.2173 72.7921 45.2072 72.8998 45.1969ZM73.7057 42.937L73.7057 42.937C73.7234 42.9397 73.7406 42.9424 73.7567 42.9456V42.7908C73.6982 42.7327 73.6008 42.7134 73.5228 42.7134C73.4849 42.7259 73.4798 42.7548 73.4755 42.7788C73.4732 42.7918 73.4712 42.8033 73.4644 42.8101C73.5132 42.907 73.6163 42.9231 73.7057 42.937ZM74.0685 43.1585L73.9905 43.1391V43.1198C73.8931 43.0617 73.7957 43.0424 73.6982 43.0811C73.7177 43.1585 73.7567 43.2166 73.8151 43.2746C73.855 43.301 73.913 43.2824 73.9582 43.2679C73.9793 43.2611 73.9976 43.2553 74.01 43.2553C74.049 43.2553 74.088 43.1972 74.0685 43.1585ZM73.5033 43.0811C73.5423 43.0811 73.5618 43.0811 73.5618 43.0617L73.5423 43.023H73.5033V43.0811ZM73.4254 42.4231C73.4059 42.4424 73.4254 42.4811 73.4449 42.5005L73.4255 42.4812C73.4309 42.4866 73.4363 42.4923 73.4419 42.4982L73.4419 42.4983C73.4761 42.5346 73.5143 42.5752 73.5813 42.5585C73.5813 42.5295 73.5667 42.5101 73.5521 42.4908C73.5374 42.4714 73.5228 42.4521 73.5228 42.4231C73.5228 42.4572 73.4959 42.4445 73.4697 42.4322C73.4514 42.4235 73.4334 42.4151 73.4254 42.4231ZM73.5229 43.2407L73.5033 43.2359L73.4644 43.2553C73.4254 43.3327 73.4839 43.3907 73.5228 43.4294L73.5228 43.4294C73.5618 43.4294 73.6008 43.4295 73.6203 43.4682C73.6787 43.4488 73.7762 43.3907 73.7762 43.352C73.7762 43.3294 73.7561 43.3333 73.7395 43.3365C73.7277 43.3388 73.7177 43.3407 73.7177 43.3327C73.6819 43.2794 73.5969 43.2587 73.5229 43.2407ZM73.9126 43.6617L73.8346 43.6036C73.7972 43.6111 73.7627 43.5957 73.731 43.5815C73.6802 43.5589 73.6368 43.5395 73.6008 43.623C73.6337 43.6475 73.6527 43.6823 73.671 43.7158C73.6961 43.7618 73.7198 43.8053 73.7762 43.8165C73.8343 43.8598 73.8924 43.8063 73.9424 43.7602C73.9595 43.7445 73.9757 43.7296 73.9905 43.7198C73.9905 43.681 73.9905 43.6423 73.971 43.6423L73.9126 43.6617ZM73.8736 44.223L73.7762 44.1455L73.6592 44.1649C73.5813 44.0875 73.4839 44.0681 73.3864 44.1068C73.4139 44.2298 73.5191 44.2563 73.6197 44.2817C73.6616 44.2923 73.7028 44.3026 73.7372 44.3197C73.7718 44.3083 73.7996 44.2832 73.8246 44.2607C73.8418 44.2452 73.8577 44.2308 73.8736 44.223ZM74.1075 44.4939L74.0685 44.4358L74.049 44.3971C73.9126 44.3778 73.7957 44.3971 73.6787 44.4358C73.643 44.4831 73.6728 44.5015 73.7058 44.5219C73.7268 44.5349 73.7491 44.5487 73.7567 44.5713C73.8541 44.61 73.9516 44.61 74.0295 44.5907C74.0685 44.5713 74.088 44.5326 74.1075 44.4939ZM73.6249 44.6075C73.5939 44.583 73.5618 44.5577 73.5618 44.5133L73.5423 44.4939C73.5163 44.5004 73.486 44.5004 73.455 44.5004C73.3929 44.5004 73.328 44.5004 73.289 44.552C73.2751 44.5933 73.3206 44.6249 73.3619 44.6536C73.3787 44.6652 73.3947 44.6763 73.4059 44.6874C73.5033 44.7261 73.6008 44.7261 73.6787 44.6681C73.6704 44.6433 73.648 44.6256 73.6249 44.6075ZM73.7013 44.9215C73.6757 44.9252 73.6357 44.931 73.6203 44.9003L73.6008 44.881C73.5813 44.8423 73.5033 44.881 73.4839 44.9197C73.5194 45.0079 73.6198 45.0318 73.6963 45.05L73.7177 45.0552C73.7957 45.0552 73.8736 44.9777 73.8736 44.9003C73.8504 44.8888 73.8479 44.8705 73.8456 44.8534C73.844 44.8418 73.8425 44.8308 73.8346 44.8229C73.7976 44.8229 73.7683 44.8618 73.7469 44.8903C73.7346 44.9067 73.7248 44.9197 73.7177 44.9197C73.7137 44.9197 73.708 44.9205 73.7013 44.9215L73.7013 44.9215ZM73.9446 45.0949C73.9003 45.1141 73.8577 45.1326 73.8151 45.1326V45.1132C73.7511 45.1609 73.7922 45.1955 73.8306 45.2278L73.8306 45.2278L73.8307 45.2279C73.839 45.2349 73.8472 45.2418 73.8541 45.2487C73.9126 45.3068 74.01 45.3068 74.088 45.2681C74.127 45.2293 74.1854 45.1713 74.1659 45.1132L74.1269 45.0552C74.0611 45.0443 74.0015 45.0702 73.9446 45.0949ZM73.971 44.7649C73.9905 44.8229 74.049 44.8616 74.1075 44.881L74.088 44.8616C74.1117 44.8459 74.1419 44.8493 74.1694 44.8525C74.2096 44.8571 74.2439 44.861 74.2439 44.8036C74.2248 44.7846 74.2291 44.7609 74.2339 44.7349C74.2388 44.7079 74.2442 44.6783 74.2244 44.6487C74.1774 44.6487 74.143 44.6863 74.1111 44.7211L74.111 44.7211C74.1032 44.7296 74.0956 44.7379 74.088 44.7455C74.0657 44.7676 74.0434 44.7645 74.0212 44.7613C74.0045 44.7589 73.9878 44.7566 73.971 44.7649ZM74.1854 44.223C74.1464 44.223 74.1075 44.2423 74.0685 44.2617H74.049C74.0733 44.31 74.128 44.3357 74.1846 44.3623C74.2188 44.3783 74.2536 44.3947 74.2829 44.4165C74.3192 44.4044 74.3179 44.3699 74.3164 44.3315C74.3154 44.3083 74.3145 44.2836 74.3218 44.2617C74.3153 44.2423 74.3153 44.2187 74.3153 44.195C74.3153 44.1477 74.3153 44.1004 74.2634 44.0875L74.1854 44.223ZM74.0377 44.1017C74.0119 44.0908 73.9843 44.0853 73.9569 44.0798C73.9039 44.0691 73.8519 44.0587 73.8151 44.0101C73.8496 43.9758 73.8841 43.9685 73.9225 43.9603C73.9493 43.9546 73.978 43.9485 74.01 43.9326C74.088 43.9133 74.1659 43.952 74.2244 44.0101C74.203 44.0313 74.1639 44.0468 74.1233 44.0628C74.0934 44.0746 74.0627 44.0867 74.0377 44.1017ZM73.9 43.481C73.9451 43.4406 74.0013 43.4314 74.0685 43.4204L74.0685 43.4204C74.0871 43.4173 74.1066 43.4141 74.1269 43.4101C74.1486 43.3457 74.1762 43.3646 74.2098 43.3877C74.2368 43.4062 74.2676 43.4273 74.3023 43.4101C74.3144 43.4221 74.3115 43.4266 74.3076 43.4329C74.3052 43.4368 74.3023 43.4414 74.3023 43.4488L74.1075 43.623C74.0155 43.6047 73.9409 43.552 73.9 43.481ZM74.0383 42.983C74.0545 42.9784 74.0685 42.962 74.0685 42.9456C74.0685 42.9263 74.01 42.9069 74.01 42.9069C74.0685 42.9263 74.1464 42.9263 74.2244 42.9069C74.2439 42.8875 74.2439 42.8488 74.2439 42.8295C74.3218 42.8295 74.3998 42.8295 74.4193 42.9069C74.4033 42.9546 74.3478 42.9892 74.2962 43.0215C74.2849 43.0285 74.2738 43.0355 74.2634 43.0424C74.2343 43.0366 74.2053 43.036 74.1778 43.0354C74.1194 43.0342 74.0679 43.0331 74.0383 42.983ZM73.9516 42.365C73.971 42.4231 74.0295 42.5198 74.1075 42.5198L74.1269 42.4618C74.1219 42.4518 74.1169 42.4412 74.1117 42.4302C74.0766 42.356 74.0339 42.2657 73.9321 42.2489L73.9516 42.365ZM74 42.7748C74.0446 42.7738 74.0834 42.773 74.1075 42.7134L74.088 42.694C74.0295 42.6553 73.9711 42.6166 73.8931 42.5972C73.8541 42.5972 73.8151 42.6166 73.7762 42.6553C73.8007 42.6716 73.815 42.6946 73.829 42.7174C73.8484 42.7488 73.8674 42.7796 73.9126 42.7908C73.9425 42.7759 73.9724 42.7753 74 42.7748ZM73.5843 42.3634C73.6111 42.4041 73.6408 42.4492 73.6787 42.4618L73.6592 42.4231C73.6787 42.4134 73.6982 42.4134 73.7177 42.4134C73.7372 42.4134 73.7567 42.4134 73.7762 42.4037C73.7762 42.365 73.7567 42.3263 73.7372 42.2876L73.7372 42.2876C73.72 42.2876 73.6994 42.2809 73.6779 42.2739C73.6264 42.2571 73.5698 42.2387 73.5423 42.3069C73.556 42.3206 73.5697 42.3414 73.5843 42.3634ZM73.3842 41.9885C73.4086 42.0141 73.434 42.0407 73.4254 42.0747C73.4726 42.0981 73.5055 42.0719 73.5414 42.0432C73.5648 42.0246 73.5895 42.0049 73.6203 41.9973C73.6333 41.8941 73.551 41.8941 73.4716 41.8941C73.4319 41.8941 73.3929 41.8941 73.3669 41.8812C73.3232 41.9245 73.353 41.9558 73.3842 41.9885ZM73.5033 43.7972C73.4839 43.7391 73.4254 43.681 73.3669 43.7391C73.378 43.783 73.3451 43.8083 73.3182 43.829C73.2976 43.8447 73.2805 43.8578 73.289 43.8746C73.3005 43.8975 73.3258 43.9001 73.3484 43.9024C73.3641 43.9039 73.3785 43.9054 73.3864 43.9133C73.4574 43.9485 73.5445 43.9036 73.589 43.8806L73.6008 43.8746L73.5033 43.7972ZM73.4449 44.3584V44.3197C73.4215 44.3023 73.3999 44.2814 73.3785 44.2607C73.3284 44.2123 73.2793 44.1649 73.211 44.1649C73.1686 44.1649 73.157 44.1852 73.1464 44.2038C73.1423 44.2108 73.1384 44.2176 73.1331 44.223C73.1136 44.281 73.1331 44.3197 73.1721 44.3584C73.216 44.413 73.2661 44.3938 73.3189 44.3735C73.3598 44.3578 73.4023 44.3415 73.4449 44.3584ZM73.4839 45.0552C73.4644 45.0165 73.3864 44.9971 73.3474 45.0165C73.3155 45.0693 73.2604 45.0414 73.2075 45.0146C73.1633 44.9923 73.1207 44.9707 73.0941 44.9971C73.1045 45.0384 73.1371 45.0632 73.1712 45.0891C73.2009 45.1117 73.2318 45.1352 73.25 45.1713C73.2657 45.1674 73.2837 45.1643 73.3027 45.161C73.3781 45.148 73.4683 45.1325 73.4839 45.0552ZM73.401 45.5663C73.3666 45.5633 73.3298 45.5602 73.3085 45.539C73.2744 45.5644 73.2291 45.5639 73.184 45.5633C73.1261 45.5627 73.0685 45.562 73.0356 45.6164C73.0649 45.6455 73.1038 45.6648 73.1428 45.6842C73.1818 45.7035 73.2208 45.7229 73.25 45.7519C73.2677 45.746 73.2907 45.7455 73.3152 45.7449C73.372 45.7436 73.4372 45.742 73.4644 45.6745C73.5139 45.576 73.4611 45.5715 73.401 45.5663ZM73.328 45.3261V45.3648C73.4449 45.5003 73.6008 45.4616 73.7372 45.4229V45.3648V45.2874C73.6916 45.2308 73.646 45.2537 73.5964 45.2786C73.5613 45.2962 73.5243 45.3148 73.4839 45.3068C73.4428 45.2525 73.4114 45.2743 73.3761 45.2989C73.3611 45.3094 73.3454 45.3203 73.328 45.3261ZM73.6877 45.7482C73.6671 45.7341 73.6458 45.7195 73.6203 45.7132C73.5423 45.7132 73.5423 45.7906 73.5423 45.8293C73.6398 45.9261 73.7762 45.9454 73.8931 45.9067C73.8864 45.8934 73.8843 45.8733 73.8821 45.8518C73.8778 45.8107 73.873 45.7646 73.8346 45.7519C73.7691 45.804 73.73 45.7772 73.6877 45.7482ZM73.8366 45.4687C73.7911 45.4822 73.7483 45.4949 73.7372 45.539C73.7957 45.5777 73.8541 45.5971 73.9321 45.5584C73.953 45.5445 73.9865 45.543 74.0208 45.5416C74.0822 45.5389 74.1464 45.5361 74.1464 45.4616C74.1464 45.356 74.0963 45.3784 74.0395 45.4038C74.0025 45.4203 73.9628 45.4381 73.9321 45.4229C73.9069 45.4478 73.871 45.4585 73.8366 45.4687ZM74.3085 43.8348C74.3494 43.8516 74.3871 43.8671 74.3998 43.8165C74.3931 43.7966 74.3979 43.7677 74.4031 43.7359C74.4131 43.6751 74.4248 43.6038 74.3618 43.5655C74.3264 43.5987 74.2828 43.6152 74.2406 43.6312C74.188 43.651 74.1375 43.6701 74.1075 43.7198L74.2439 43.8165C74.2641 43.8165 74.2868 43.8258 74.3085 43.8348ZM74.3304 43.2868C74.3802 43.3015 74.4228 43.314 74.4582 43.2553C74.4582 43.2359 74.4582 43.1972 74.4388 43.1585C74.4388 43.134 74.431 43.1328 74.4154 43.1302C74.4063 43.1288 74.3946 43.1269 74.3803 43.1198C74.3413 43.1004 74.4193 43.0811 74.4193 43.0811V43.0617C74.3998 43.0617 74.4193 43.023 74.4193 43.023L74.3803 43.0617V43.0811C74.3538 43.0679 74.3363 43.0816 74.3156 43.0978C74.3058 43.1054 74.2953 43.1136 74.2829 43.1198C74.2829 43.1585 74.2536 43.1633 74.2244 43.1682C74.1952 43.173 74.1659 43.1779 74.1659 43.2166L74.2244 43.2746C74.2627 43.267 74.298 43.2774 74.3304 43.2868ZM72.5884 39.9608C72.5085 39.9467 72.4276 39.9324 72.3536 39.9458V39.9651C72.6849 40.0232 72.9967 40.12 73.289 40.2361C73.3085 40.2458 73.328 40.2579 73.3474 40.27C73.4059 40.3062 73.4644 40.3425 73.5228 40.3135C73.4739 40.192 73.3788 40.1162 73.2811 40.0384C73.2232 39.9922 73.1643 39.9453 73.1136 39.8877C73.0941 39.849 73.0356 39.7522 72.9772 39.849C72.8878 40.0138 72.74 39.9876 72.5884 39.9608ZM73.3669 40.449L72.8018 40.2554C72.3925 40.12 71.9443 40.1006 71.5156 40.1587C71.4766 40.507 71.3987 40.8748 71.3207 41.2231H71.3012V41.2618C71.5351 41.2231 71.7689 41.2231 72.0028 41.2231H72.0028C72.1106 41.2499 72.2195 41.2726 72.328 41.2951L72.328 41.2951C72.69 41.3705 73.0475 41.4449 73.3474 41.6683C73.5033 41.7457 73.6787 41.8618 73.8151 41.9779C73.9711 42.094 74.088 42.2295 74.2049 42.3844C74.2829 42.4618 74.3608 42.5392 74.4388 42.6359C74.4388 42.6643 74.4574 42.6696 74.4741 42.6743C74.4917 42.6793 74.5072 42.6837 74.4972 42.7134C74.5037 42.7198 74.508 42.7284 74.5124 42.737L74.5124 42.737C74.521 42.7542 74.5297 42.7714 74.5557 42.7714L74.5947 42.7908C74.6726 42.4037 74.6921 41.9973 74.6921 41.6102H74.7116C74.6921 41.5521 74.6531 41.4941 74.6141 41.4554C74.5947 41.4554 74.5752 41.4747 74.5752 41.4941L74.5634 41.5985C74.5286 41.9086 74.4953 42.2045 74.4777 42.5005L74.4582 42.5585C74.4193 42.4811 74.3608 42.4037 74.3023 42.3263L74.3803 41.7263C74.3841 41.6887 74.3893 41.6504 74.3946 41.6118L74.3946 41.6117C74.4166 41.4515 74.4393 41.2861 74.3608 41.1457H74.3413C74.3218 41.1457 74.3023 41.1457 74.3023 41.1264V41.1263C74.3023 41.107 74.3023 41.107 74.3218 41.107C74.1512 40.8854 73.9186 40.7603 73.6897 40.6373C73.5788 40.5776 73.4687 40.5185 73.3669 40.449ZM71.3597 40.2167C71.2817 40.2167 71.2038 40.2554 71.1453 40.2941C71.0674 40.6232 71.0089 41.0102 70.9699 41.378L71.1648 41.3005C71.1879 41.0827 71.2315 40.8716 71.2754 40.6593C71.3056 40.5133 71.3359 40.3666 71.3597 40.2167ZM70.4867 41.4905C70.5082 41.4739 70.5321 41.4554 70.5607 41.4554L70.6776 40.6812C70.6971 40.6232 70.6192 40.6038 70.5802 40.6425C70.5656 40.7151 70.5497 40.7877 70.5339 40.8603C70.4864 41.078 70.4389 41.2957 70.4243 41.5134C70.4442 41.5233 70.4641 41.5079 70.4867 41.4905ZM71.3434 44.7827C71.4053 44.8559 71.4691 44.9313 71.5546 44.939C71.9053 45.0745 72.3341 44.9971 72.6459 44.7455C72.8213 44.6294 72.9577 44.4358 73.0551 44.2423C73.1031 44.1351 73.1437 44.0278 73.1861 43.916L73.1861 43.916C73.2125 43.8462 73.2395 43.7747 73.2695 43.7004C73.3474 43.1779 73.3474 42.6553 73.25 42.1521C73.25 42.0889 73.2246 42.0342 73.1994 41.98C73.1706 41.918 73.1422 41.8567 73.1526 41.7844C72.8213 41.6296 72.451 41.5134 72.0807 41.4554C71.8079 41.4167 71.5351 41.4554 71.2817 41.5521C71.2817 41.5599 71.2755 41.5676 71.2693 41.5754C71.2599 41.587 71.2506 41.5986 71.2623 41.6102C71.2233 41.7457 71.3012 41.8037 71.3792 41.8618C71.5546 41.8037 71.73 41.765 71.9053 41.7457C72.1977 41.8037 72.4705 41.9199 72.7238 42.094L72.7043 42.1134C72.6214 42.1016 72.5348 42.072 72.4469 42.0418C72.2455 41.9728 72.0368 41.9013 71.8469 42.036L71.9053 42.0553C72.1172 42.0133 72.2779 42.1338 72.4393 42.255C72.5006 42.301 72.562 42.3471 72.6264 42.3844C72.6069 42.4037 72.5874 42.4037 72.5874 42.4037C72.3731 42.2682 72.1197 42.2295 71.8664 42.2876C71.8526 42.3013 71.8583 42.3053 71.8697 42.3133C71.8744 42.3166 71.8802 42.3206 71.8859 42.3263C71.8859 42.4138 71.9357 42.4766 71.9825 42.5356C72.0185 42.581 72.0528 42.6242 72.0613 42.6747C72.0442 42.6747 72.0271 42.6672 72.0116 42.6605C71.9918 42.6519 71.9748 42.6444 71.9638 42.6553C71.8989 42.6682 71.8339 42.6467 71.7689 42.6252C71.7365 42.6144 71.704 42.6037 71.6715 42.5972C71.6325 42.565 71.587 42.5392 71.5416 42.5134C71.4506 42.4618 71.3597 42.4102 71.3207 42.3069C71.2817 42.3166 71.2476 42.3069 71.2135 42.2973C71.1794 42.2876 71.1453 42.2779 71.1063 42.2876C70.9894 42.5198 70.892 42.7714 70.8335 43.023C70.853 43.1004 70.9699 43.1585 71.0479 43.1972L71.0479 43.1972C71.1047 43.2066 71.1616 43.184 71.2206 43.1605C71.2831 43.1357 71.348 43.1098 71.4182 43.1198C71.4961 43.1585 71.5351 43.2553 71.5351 43.3327C71.4822 43.4377 71.3845 43.4091 71.2845 43.3799C71.2371 43.366 71.1892 43.352 71.1453 43.352L71.1063 43.3714L71.1258 43.3907V43.4101L71.1063 43.3907L71.1258 43.4294C71.0904 43.4999 71.0334 43.492 70.9723 43.4835C70.9327 43.478 70.8913 43.4723 70.853 43.4875H70.892C70.853 43.5649 70.814 43.6811 70.7945 43.7778L70.8725 43.7198C70.9058 43.6757 70.9391 43.6943 70.9759 43.715C71.0038 43.7307 71.0338 43.7474 71.0674 43.7391C71.2076 43.623 71.3339 43.688 71.4629 43.7544C71.549 43.7987 71.6364 43.8436 71.73 43.8359C71.8064 43.7599 71.8329 43.833 71.8584 43.9035C71.8713 43.9391 71.8839 43.974 71.9026 43.9887C71.9048 43.9999 71.9142 44.0092 71.9224 44.0173C71.9346 44.0294 71.9443 44.0391 71.9248 44.0488C71.8664 44.0294 71.8079 43.9907 71.7689 43.9326L71.5351 43.8939C71.5034 43.8624 71.4659 43.8651 71.4258 43.868C71.392 43.8704 71.3564 43.8729 71.3207 43.8552C71.1648 43.8746 71.0089 43.9133 70.8725 43.9907C70.8585 44.0185 70.8646 44.0464 70.8692 44.067C70.871 44.0751 70.8725 44.082 70.8725 44.0875H70.8335C70.8725 44.1068 70.931 44.1262 70.9699 44.1068C71.0227 44.1156 71.0754 44.1085 71.1264 44.1017C71.1884 44.0935 71.2477 44.0856 71.3012 44.1068C71.3207 44.2036 71.3597 44.3004 71.4182 44.3778L71.3987 44.3971L71.1843 44.3778C71.1592 44.3861 71.1313 44.3926 71.1029 44.3993C70.9992 44.4236 70.8878 44.4498 70.8725 44.5713C70.88 44.6012 70.8759 44.6455 70.8714 44.6942C70.8643 44.7717 70.8561 44.8603 70.892 44.9197L70.9115 44.9003C70.9115 44.853 70.9406 44.8129 70.9677 44.7756C70.9849 44.7519 71.0013 44.7294 71.0089 44.7068C71.1612 44.5672 71.2501 44.6724 71.3434 44.7827ZM71.9026 43.9887C71.9016 43.9834 71.9022 43.9776 71.9053 43.9714V43.9907L71.9026 43.9887ZM71.8859 45.5584C71.9053 45.5971 71.9638 45.6164 72.0028 45.6164C72.0028 45.5938 72.0095 45.5844 72.015 45.5766C72.0189 45.5711 72.0223 45.5664 72.0223 45.5584C72.0223 45.5197 71.9833 45.5197 71.9638 45.5197H71.9638C71.9561 45.5273 71.9391 45.5289 71.9227 45.5305C71.8978 45.5328 71.8741 45.535 71.8859 45.5584ZM72.2172 45.2874V45.3455C72.2561 45.4229 72.3297 45.4315 72.4034 45.4401C72.4402 45.4444 72.477 45.4487 72.5095 45.4616C72.529 45.4326 72.5484 45.4084 72.5679 45.3842L72.5679 45.3842L72.5679 45.3842C72.5874 45.36 72.6069 45.3358 72.6264 45.3068C72.5768 45.1755 72.4992 45.2668 72.453 45.3213L72.453 45.3213C72.4447 45.331 72.4374 45.3396 72.4315 45.3455L72.2172 45.2874ZM72.5636 45.7218C72.5982 45.7304 72.6329 45.739 72.6654 45.7519C72.6654 45.7104 72.6878 45.7023 72.7085 45.6947C72.7265 45.6882 72.7433 45.6821 72.7433 45.6551C72.7823 45.5584 72.6459 45.5777 72.6069 45.5971C72.529 45.5777 72.4315 45.5971 72.3731 45.6358C72.425 45.6874 72.4943 45.7046 72.5636 45.7218ZM73.1331 45.3261C73.0746 45.3068 72.9967 45.3455 72.9772 45.4035L72.9577 45.3842C72.8992 45.3648 72.8213 45.3648 72.7628 45.4035C72.7628 45.4528 72.8188 45.4881 72.8715 45.5213C72.881 45.5272 72.8903 45.5331 72.8992 45.539C72.9772 45.4809 73.0551 45.4422 73.1526 45.4035V45.3455C73.1526 45.3261 73.1331 45.3261 73.1331 45.3261ZM72.7823 45.8487L72.9382 45.9454C72.9815 45.9562 73.0248 45.9371 73.0681 45.918C73.1028 45.9027 73.1374 45.8874 73.1721 45.8874C73.0746 45.868 72.9967 45.8293 72.9382 45.7713C72.9187 45.7906 72.8895 45.8003 72.8602 45.81C72.831 45.8196 72.8018 45.8293 72.7823 45.8487ZM73.2008 46.0412C73.2174 46.0648 73.2472 46.0759 73.2794 46.088C73.3021 46.0965 73.3261 46.1055 73.3474 46.1196C73.3635 46.0957 73.3962 46.0948 73.4304 46.0938C73.4791 46.0925 73.5309 46.0911 73.5423 46.0228L73.4059 45.9454C73.3669 45.9841 73.3085 45.9841 73.2695 45.9454C73.2695 45.9811 73.2364 46.0331 73.2008 46.0412ZM73.4432 46.3734C73.4602 46.3849 73.4769 46.3962 73.4839 46.4099V46.3906C73.5423 46.4293 73.6398 46.4099 73.6787 46.3519L73.5813 46.2551C73.5593 46.2624 73.5346 46.2614 73.5103 46.2605C73.4698 46.259 73.4302 46.2576 73.4059 46.2938C73.3808 46.3313 73.4124 46.3526 73.4432 46.3734ZM74.01 46.0809C73.9516 46.0809 73.8931 46.0809 73.8541 46.1003L73.8736 46.0809L73.8736 46.0809C73.8151 46.1003 73.7567 46.1196 73.7177 46.139L73.8151 46.2551C73.8541 46.2938 73.9126 46.2938 73.971 46.2744C74.0243 46.2533 74.0135 46.2148 74.0024 46.1748C73.9931 46.1416 73.9835 46.1073 74.01 46.0809ZM73.8931 46.526C73.9516 46.5067 73.9905 46.468 73.9905 46.4099L73.971 46.3906C73.9451 46.4035 73.9148 46.4035 73.8852 46.4035C73.826 46.4035 73.7697 46.4035 73.7567 46.5067V46.526C73.7957 46.5454 73.8541 46.5648 73.8931 46.526ZM73.7567 46.7196C73.7372 46.7776 73.8346 46.8164 73.8931 46.8357C73.939 46.8585 73.9579 46.841 73.9776 46.8228C73.9913 46.8101 74.0055 46.797 74.0295 46.797C73.9961 46.797 73.9881 46.7717 73.9802 46.7464C73.9742 46.7275 73.9683 46.7085 73.9516 46.7002C73.8736 46.6809 73.8151 46.7002 73.7567 46.7196ZM74.0895 46.9604C74.0457 46.9483 74.0041 46.9368 73.9905 46.9905L73.971 46.9518C73.9749 46.9634 73.9781 46.9758 73.9812 46.9882C73.9937 47.0378 74.0061 47.0873 74.0685 47.0873C74.0849 47.0873 74.1005 47.0882 74.1153 47.089C74.1703 47.092 74.2131 47.0944 74.2439 47.0486L74.1464 46.9712C74.1285 46.9712 74.1088 46.9657 74.0895 46.9604ZM74.228 47.3063C74.2386 47.3383 74.2714 47.3418 74.3076 47.3458C74.34 47.3493 74.3751 47.3531 74.3998 47.3776C74.4388 47.3389 74.4777 47.3196 74.5167 47.3389L74.4388 47.2421C74.4088 47.257 74.3732 47.2576 74.3395 47.2582C74.2898 47.259 74.2443 47.2598 74.228 47.3063ZM74.4875 47.5518C74.4875 47.5566 74.4875 47.5615 74.4972 47.5711H74.4777C74.5557 47.6292 74.6726 47.6292 74.77 47.5711C74.77 47.397 74.5557 47.4744 74.4777 47.5324C74.4875 47.5421 74.4875 47.547 74.4875 47.5518ZM74.8046 47.874C74.8297 47.8805 74.8542 47.887 74.8675 47.9002V47.8808C74.926 47.9002 74.9844 47.9002 75.0429 47.9002C74.9885 47.9002 74.9531 47.8437 74.9235 47.7964C74.9106 47.7759 74.8988 47.7571 74.887 47.7453C74.8625 47.7616 74.8379 47.754 74.8148 47.7468C74.7829 47.7369 74.7537 47.7279 74.7311 47.784C74.7054 47.8479 74.756 47.8612 74.8046 47.874ZM75.2572 47.7807C75.2468 47.7834 75.2409 47.7945 75.2355 47.8046C75.2304 47.8141 75.2258 47.8227 75.2183 47.8227C75.1695 47.8324 75.1501 47.8082 75.1306 47.784C75.1111 47.7598 75.0916 47.7357 75.0429 47.7453C75.0555 47.7203 75.0926 47.7114 75.1278 47.7031C75.147 47.6985 75.1656 47.6941 75.1793 47.6873C75.2183 47.6873 75.2767 47.7066 75.2767 47.7647C75.2584 47.7464 75.2573 47.7626 75.2572 47.7807ZM76.0284 55.4198C76.0113 55.4166 75.9944 55.4134 75.9783 55.4094L75.9588 55.3901C75.918 55.4171 75.9342 55.4441 75.9543 55.4777C75.963 55.4922 75.9724 55.508 75.9783 55.5255C76.0027 55.5255 76.029 55.5331 76.0549 55.5406L76.0549 55.5406C76.1116 55.5569 76.1659 55.5726 76.1927 55.5062C76.1617 55.4447 76.094 55.4321 76.0284 55.4198ZM76.1537 55.1578C76.1342 55.1578 76.1147 55.1965 76.1147 55.2159C76.128 55.2819 76.1776 55.2939 76.2326 55.3071C76.2581 55.3133 76.2848 55.3197 76.3096 55.332C76.3782 55.2411 76.326 55.2302 76.2632 55.2172C76.2191 55.208 76.1698 55.1978 76.1537 55.1578ZM77.6142 57.8619C77.6614 57.861 77.7079 57.8601 77.7517 57.8673C77.5481 57.5726 77.3594 57.2814 77.1709 56.9908C76.9263 56.6136 76.6822 56.2371 76.407 55.8545L76.446 55.8352C76.4174 55.8494 76.3993 55.8219 76.3839 55.7986C76.3784 55.7901 76.3732 55.7823 76.368 55.7771C76.2706 55.7771 76.1732 55.7965 76.0952 55.8158C76.0352 55.8307 76.0445 55.88 76.0519 55.9196C76.0542 55.9314 76.0562 55.9424 76.0562 55.9513C76.3948 56.4137 76.7028 56.8557 77.017 57.3069C77.1369 57.4789 77.2577 57.6523 77.3814 57.8286C77.4546 57.8649 77.5353 57.8634 77.6142 57.8619ZM76.4295 55.5821C76.4748 55.6081 76.5208 55.6345 76.5824 55.6223C76.6019 55.6029 76.6019 55.5642 76.6019 55.5449C76.5596 55.5449 76.532 55.523 76.5047 55.5014C76.4692 55.4733 76.4342 55.4456 76.368 55.4675L76.3486 55.4868C76.3291 55.5062 76.3291 55.5255 76.3486 55.5449C76.3772 55.552 76.4032 55.567 76.4295 55.5821ZM76.3709 55.0531C76.4033 55.075 76.4379 55.0985 76.446 55.1385C76.4788 55.2037 76.5178 55.1834 76.5629 55.16C76.5981 55.1417 76.6371 55.1215 76.6798 55.1385C76.6458 55.1131 76.6415 55.0729 76.6377 55.0373C76.6328 54.9915 76.6287 54.9534 76.5629 54.9643C76.526 54.9569 76.4948 54.9579 76.4659 54.9589C76.4184 54.9604 76.3775 54.9616 76.3291 54.9256C76.2833 54.9937 76.3249 55.0219 76.3709 55.0531ZM76.5593 54.7434L76.5593 54.7434C76.581 54.7576 76.6031 54.7719 76.6214 54.7901C76.6708 54.8294 76.7102 54.7989 76.7548 54.7644C76.7982 54.7309 76.8465 54.6936 76.9137 54.7127C76.8942 54.674 76.8552 54.6353 76.8163 54.6159C76.7773 54.6159 76.7361 54.5987 76.695 54.5815C76.6127 54.5471 76.5304 54.5127 76.4655 54.6159C76.4655 54.6824 76.5115 54.7124 76.5593 54.7434ZM76.81 51.4044C76.8204 51.4108 76.8299 51.4167 76.8358 51.4225C76.8532 51.3879 76.8824 51.3726 76.9111 51.3576C76.9464 51.3392 76.9809 51.3211 76.9917 51.2677C76.9653 51.259 76.9429 51.2345 76.919 51.2084C76.8901 51.1768 76.859 51.1429 76.8163 51.1322C76.787 51.1516 76.787 51.1951 76.787 51.2387C76.787 51.2822 76.787 51.3258 76.7578 51.3451C76.7578 51.3721 76.7862 51.3897 76.81 51.4044ZM77.2255 51.7516L77.1281 51.7322C77.0725 51.677 77.036 51.7036 77.0004 51.7295C76.9735 51.7491 76.9472 51.7682 76.9137 51.7516C76.8942 51.7516 76.8747 51.7709 76.8747 51.7903C76.8357 51.9064 76.9527 51.9064 77.0306 51.9064C77.0599 51.8774 77.094 51.8725 77.1281 51.8677C77.1622 51.8628 77.1963 51.858 77.2255 51.829C77.245 51.8096 77.245 51.7709 77.2255 51.7516ZM76.8455 52.0518C76.8228 52.0396 76.8 52.0273 76.7773 52.0612C76.7637 52.0747 76.7691 52.0976 76.7735 52.1168C76.7755 52.1251 76.7773 52.1328 76.7773 52.1386C76.8357 52.1773 76.8942 52.1967 76.9527 52.1773C76.9267 52.1644 76.918 52.1343 76.9094 52.1042C76.905 52.0892 76.9007 52.0741 76.8942 52.0612C76.878 52.0693 76.8617 52.0605 76.8455 52.0518ZM77.3619 52.3322H77.206C77.1731 52.3256 77.1379 52.3036 77.1043 52.2826C77.0384 52.2413 76.9785 52.2038 76.9527 52.2935C76.9722 52.3515 76.9917 52.3902 77.0306 52.4289C77.1476 52.4483 77.284 52.4483 77.3619 52.3322ZM77.1872 54.0774C77.2226 54.097 77.2573 54.1162 77.284 54.1514C77.335 54.1514 77.3646 54.1196 77.398 54.0837C77.4285 54.0511 77.4621 54.015 77.5178 53.9966C77.4594 53.9772 77.4204 53.9579 77.3814 53.9192C77.3229 53.9772 77.245 53.9772 77.1865 53.9579C77.1573 53.9869 77.1281 53.9833 77.0988 53.9796C77.0891 53.9784 77.0793 53.9772 77.0696 53.9772C77.1014 54.0299 77.1448 54.0539 77.1872 54.0774ZM77.4983 54.5578C77.4594 54.5578 77.4399 54.5385 77.4399 54.5191C77.4106 54.5095 77.3911 54.5095 77.3765 54.5095C77.3619 54.5095 77.3522 54.5095 77.3424 54.4998C77.2255 54.4804 77.1281 54.5191 77.0501 54.5966L77.2255 54.732L77.245 54.7127C77.3279 54.7244 77.3677 54.6789 77.408 54.6328C77.4339 54.603 77.4602 54.573 77.4983 54.5578ZM77.0648 53.497C77.1399 53.5154 77.2279 53.5369 77.2645 53.6095C77.3163 53.6095 77.3351 53.5931 77.3559 53.5748C77.3743 53.5587 77.3943 53.5412 77.4399 53.5321C77.5066 53.5188 77.4911 53.4784 77.4747 53.4355C77.4671 53.4158 77.4594 53.3956 77.4594 53.3773C77.4261 53.2783 77.3504 53.334 77.2926 53.3766L77.2772 53.3878C77.2738 53.3902 77.2705 53.3926 77.2673 53.3947C77.2663 53.3954 77.2654 53.396 77.2645 53.3966C77.2398 53.4294 77.2046 53.424 77.1693 53.4187C77.1211 53.4114 77.0726 53.404 77.0501 53.4934L77.0648 53.497ZM77.079 52.9885C77.105 52.9904 77.1302 52.9923 77.1475 53.0095C77.2356 53.0845 77.2831 53.0224 77.3319 52.9585C77.3587 52.9234 77.3858 52.8878 77.4204 52.8741L77.3971 52.8682C77.3303 52.8512 77.276 52.8373 77.206 52.8547C77.161 52.8659 77.1159 52.89 77.0746 52.9121L77.0746 52.9121C77.0445 52.9283 77.0163 52.9433 76.9917 52.9515C77.0132 52.9836 77.0468 52.9861 77.079 52.9885ZM77.0389 53.2969C77.0739 53.2703 77.1068 53.2454 77.1281 53.2031C77.0809 53.1445 77.0408 53.1639 76.9993 53.1841C76.9722 53.1973 76.9445 53.2107 76.9137 53.2031C76.8871 53.1965 76.8605 53.1786 76.8354 53.1617C76.7871 53.1293 76.7445 53.1006 76.7188 53.1644C76.7188 53.2956 76.8168 53.3295 76.906 53.3604C76.9221 53.3659 76.9378 53.3714 76.9527 53.3773C76.9792 53.3421 77.0098 53.3189 77.0389 53.2969L77.0389 53.2969ZM76.9856 53.7109C76.9236 53.7248 76.8601 53.7391 76.8163 53.6869C76.7578 53.6869 76.7383 53.7256 76.7383 53.7837L76.8163 53.8805C76.8586 53.8805 76.9113 53.9008 76.9593 53.9194L76.9593 53.9194C76.9775 53.9264 76.9951 53.9332 77.0111 53.9385C77.0286 53.9038 77.0578 53.8886 77.0865 53.8736C77.1218 53.8551 77.1563 53.8371 77.167 53.7837C77.1349 53.6772 77.0614 53.6938 76.9856 53.7109ZM77.1281 54.2869L77.0306 54.2095C76.9332 54.1708 76.8163 54.1901 76.7188 54.2288C76.7038 54.3479 76.7925 54.3754 76.8698 54.3993C76.893 54.4065 76.9152 54.4134 76.9332 54.4224C76.9983 54.4224 77.0498 54.3684 77.099 54.3168L77.099 54.3168C77.1088 54.3066 77.1184 54.2965 77.1281 54.2869ZM76.9275 55.419C76.9618 55.4045 76.9962 55.3901 77.0306 55.3901V55.3513C77.0306 55.2929 76.9751 55.3006 76.9227 55.3079C76.9057 55.3103 76.889 55.3126 76.8747 55.3126L76.8358 55.2739C76.8257 55.2739 76.8169 55.2726 76.8084 55.2714C76.7841 55.2678 76.7622 55.2646 76.7188 55.2933C76.675 55.3223 76.6969 55.3513 76.7188 55.3804L76.7188 55.3804C76.7261 55.3901 76.7334 55.3997 76.7383 55.4094C76.8014 55.472 76.8644 55.4455 76.9275 55.419ZM76.7968 55.0223C76.8357 55.1385 76.9527 55.1578 77.0696 55.1578C77.1061 55.182 77.1427 55.1684 77.1792 55.1548C77.2011 55.1466 77.2231 55.1385 77.245 55.1385C77.2352 55.1288 77.2352 55.1143 77.2352 55.0997C77.2352 55.0852 77.2352 55.0707 77.2255 55.061C77.2132 54.9758 77.1546 54.9825 77.0934 54.9896C77.0574 54.9937 77.0205 54.998 76.9917 54.9836C76.9527 54.9449 76.9137 54.9062 76.8747 54.9062C76.8513 54.9062 76.849 54.9271 76.8467 54.948C76.8451 54.9619 76.8435 54.9759 76.8358 54.9836C76.8283 54.991 76.8209 54.9956 76.8145 54.9995C76.8042 55.0058 76.7968 55.0104 76.7968 55.0223ZM77.3814 54.8675C77.4399 54.9449 77.5178 54.9643 77.6153 54.9643C77.639 54.9407 77.6498 54.9077 77.6609 54.8741C77.6771 54.8248 77.6937 54.7744 77.7517 54.7514C77.6343 54.6515 77.517 54.7521 77.4244 54.8315L77.4244 54.8315L77.4244 54.8315C77.4093 54.8444 77.395 54.8567 77.3814 54.8675ZM77.7517 54.3256C77.8101 54.2675 77.8296 54.1901 77.8101 54.1127C77.7712 54.074 77.7322 54.074 77.7127 54.0934C77.6849 54.1099 77.6491 54.1218 77.6126 54.1339C77.5214 54.1641 77.4259 54.1957 77.4399 54.3062C77.5373 54.345 77.6347 54.345 77.7517 54.3256ZM77.6542 53.8611C77.7127 53.8224 77.7127 53.7256 77.7127 53.6676L77.6932 53.6095C77.6251 53.6095 77.5665 53.6474 77.5107 53.6834C77.4868 53.6989 77.4633 53.714 77.4399 53.7256L77.5178 53.8224C77.5532 53.8107 77.5814 53.8273 77.6068 53.8423C77.6234 53.852 77.6388 53.8611 77.6542 53.8611ZM77.4594 53.1644C77.4837 53.1644 77.5081 53.1644 77.5373 53.1837C77.5958 53.1644 77.6737 53.1257 77.6737 53.0676C77.6347 53.0289 77.5763 52.9902 77.5178 52.9902C77.47 53.0021 77.4515 53.0358 77.4308 53.0735C77.4178 53.0973 77.404 53.1226 77.3814 53.145C77.4106 53.1644 77.435 53.1644 77.4594 53.1644ZM77.4399 52.6805C77.4983 52.6805 77.5763 52.6225 77.5568 52.5451C77.5419 52.5229 77.5327 52.4979 77.5248 52.4765C77.5121 52.442 77.5029 52.417 77.4788 52.4289C77.3814 52.5063 77.284 52.5644 77.1865 52.6225L77.1865 52.6225C77.2645 52.6612 77.3619 52.6805 77.4399 52.6805ZM77.4204 52.1193C77.4594 52.0999 77.4788 52.0419 77.4788 52.0032C77.4653 51.9627 77.4422 51.9504 77.4229 51.9401C77.4145 51.9357 77.4068 51.9316 77.4009 51.9257C77.3467 51.9347 77.3009 51.9644 77.2557 51.9938C77.2034 52.0278 77.1518 52.0612 77.0891 52.0612L77.1086 52.0999C77.206 52.1386 77.3229 52.1386 77.4204 52.1193ZM77.2255 51.5967C77.3035 51.5774 77.3814 51.5387 77.3424 51.4419C77.2823 51.2477 77.1756 51.3418 77.0853 51.4215C77.0586 51.4451 77.0334 51.4674 77.0111 51.4806C77.0432 51.5603 77.115 51.5744 77.1829 51.5877L77.1829 51.5877C77.1974 51.5905 77.2118 51.5933 77.2255 51.5967ZM77.2175 50.926C77.2415 50.887 77.2661 50.8468 77.245 50.7839C77.1865 50.7065 77.1281 50.7839 77.1086 50.8226C77.0791 50.8445 77.0413 50.8526 77.0046 50.8605C76.9442 50.8735 76.8868 50.8858 76.8747 50.958C76.9722 51.0161 77.0891 51.0355 77.1865 51.0355C77.1776 50.9911 77.1973 50.959 77.2175 50.926ZM77.0181 50.5123C77.0156 50.475 77.0129 50.4337 77.0501 50.3968C77.0306 50.3581 76.9916 50.3387 76.9722 50.3581C76.9462 50.3774 76.9137 50.3903 76.8812 50.4032C76.8163 50.4291 76.7513 50.4549 76.7383 50.5323C76.8163 50.571 76.8942 50.5903 76.9722 50.6097C77.0231 50.5894 77.0208 50.5533 77.0181 50.5123ZM76.7383 49.5452C76.7188 49.5065 76.6798 49.4872 76.6409 49.5065C76.6214 49.4872 76.5824 49.5065 76.6019 49.5452C76.6214 49.5839 76.6604 49.642 76.7188 49.6226L76.7383 49.5646V49.5452ZM76.6936 49.9509C76.6769 49.9684 76.6604 49.9858 76.6604 50.0097C76.6798 50.0678 76.7383 50.1065 76.7968 50.1065C76.8795 50.09 76.892 50.0317 76.9058 49.9671L76.9058 49.967C76.9083 49.9556 76.9108 49.9439 76.9137 49.9323C76.8942 49.8936 76.8552 49.8936 76.8163 49.8936C76.7773 49.8936 76.7383 49.8936 76.7188 49.8549C76.7417 49.9004 76.7175 49.9259 76.6936 49.9509ZM76.8348 52.5505C76.807 52.5514 76.7797 52.5523 76.7578 52.5451C76.7383 52.5257 76.7188 52.5257 76.6993 52.5257C76.6604 52.5451 76.6604 52.5838 76.6798 52.6225C76.7383 52.7386 76.8747 52.7386 76.9917 52.7386C77.0696 52.7579 77.0696 52.6612 77.0696 52.6031L76.9527 52.5838C76.9283 52.5474 76.881 52.549 76.8348 52.5505ZM76.7418 52.9778C76.7624 52.9652 76.7773 52.9561 76.7773 52.9321C76.7383 52.8547 76.6409 52.8354 76.6019 52.9321C76.6019 52.9902 76.6604 53.0095 76.6993 53.0095C76.7142 52.9948 76.7291 52.9856 76.7418 52.9778ZM76.6798 53.4353C76.6214 53.474 76.5434 53.4547 76.485 53.416C76.4265 53.4353 76.4265 53.474 76.4265 53.5127C76.446 53.5224 76.446 53.5273 76.446 53.5369C76.446 53.5466 76.446 53.5611 76.4655 53.5902C76.4906 53.6276 76.5077 53.6167 76.5271 53.6043C76.5377 53.5974 76.5491 53.5902 76.5629 53.5902C76.6098 53.6677 76.6566 53.6086 76.6934 53.5621C76.7026 53.5505 76.7111 53.5398 76.7188 53.5321C76.7136 53.5217 76.7084 53.5127 76.7035 53.5044C76.6903 53.4816 76.6798 53.4637 76.6798 53.4353ZM76.4638 53.9386C76.4397 53.9228 76.4148 53.9066 76.3875 53.8998C76.3486 53.8805 76.3486 53.9385 76.3486 53.9579C76.368 54.0546 76.485 54.1127 76.5824 54.1321L76.7578 54.0353C76.7403 54.0237 76.7246 54.0087 76.7096 53.9944C76.6743 53.9607 76.6429 53.9307 76.6019 53.9579C76.5512 53.9956 76.5088 53.9679 76.4638 53.9386ZM76.5045 54.4417C76.5434 54.4224 76.5045 54.3643 76.485 54.3449C76.422 54.3628 76.3673 54.3353 76.3171 54.31C76.2586 54.2806 76.2061 54.2542 76.1537 54.3062C76.1537 54.3411 76.1747 54.355 76.1958 54.369C76.2098 54.3782 76.2238 54.3875 76.2316 54.403C76.2605 54.4087 76.291 54.4196 76.3218 54.4304C76.3949 54.4563 76.4691 54.4826 76.5239 54.4417H76.5045ZM76.1481 54.6458C76.126 54.6344 76.1033 54.6227 76.0757 54.6159H76.0368C76.0173 54.6353 76.0173 54.6546 76.0368 54.674C76.0952 54.7707 76.1927 54.7707 76.2901 54.7707C76.3096 54.7514 76.3291 54.6933 76.2901 54.674C76.2271 54.6865 76.1885 54.6666 76.1481 54.6458ZM76.0562 55.003C76.0757 54.9062 75.9198 54.9062 75.9003 54.9449C75.8808 54.9643 75.8808 55.0417 75.9198 55.0223C75.9393 55.0127 75.9637 55.0127 75.988 55.0127C76.0124 55.0127 76.0368 55.0127 76.0562 55.003ZM75.9198 55.3126C75.9003 55.2546 75.8419 55.2546 75.8029 55.2546C75.7639 55.2546 75.7444 55.3126 75.7834 55.332C75.8091 55.3149 75.8387 55.3317 75.8636 55.3458C75.8954 55.3638 75.9198 55.3776 75.9198 55.3126ZM75.7548 55.6525C75.7364 55.6503 75.7187 55.6482 75.7055 55.6417C75.686 55.6417 75.6665 55.6804 75.6665 55.6997C75.686 55.7384 75.7055 55.7384 75.7444 55.7384C75.7592 55.7311 75.7796 55.7321 75.7981 55.733C75.8285 55.7345 75.854 55.7358 75.8419 55.6997C75.829 55.6614 75.7906 55.6568 75.7548 55.6525ZM72.8018 48.0743C73.4644 48.2678 74.1075 48.5388 74.7311 48.8484C74.7691 48.8736 74.7824 48.9152 74.7924 48.9465C74.7978 48.9633 74.8022 48.9771 74.809 48.9839C74.7513 49.3138 74.6947 49.6414 74.6384 49.9672L74.6382 49.9681L74.6382 49.9681C74.4668 50.9607 74.2982 51.9367 74.1075 52.9127C74.0667 53.1558 74.0122 53.3988 73.9584 53.639L73.9584 53.6391L73.9584 53.6391C73.8837 53.9727 73.8102 54.3008 73.7762 54.6158C73.7677 54.6074 73.7629 54.6173 73.757 54.6296C73.7493 54.6456 73.7397 54.6655 73.7177 54.6545L73.7372 54.6739C73.4839 55.8158 73.1331 56.9189 72.3731 57.8285C72.3397 57.8285 72.3317 57.8538 72.3238 57.8791C72.3178 57.8981 72.3118 57.917 72.2951 57.9253C71.1648 59.2801 69.6643 60.2091 67.9494 60.3832C66.897 59.5704 66.1955 58.3898 65.7083 57.2092C65.3185 56.1448 65.1821 55.0029 65.299 53.8804C65.3932 52.8914 65.5896 51.9302 65.7856 50.9711L65.7856 50.9711C65.8734 50.5413 65.9611 50.1119 66.0396 49.6806C66.0864 49.6341 66.091 49.5735 66.0957 49.5116C66.0988 49.4705 66.102 49.4289 66.1175 49.3903C66.2052 48.9936 66.2978 48.5968 66.3903 48.2001L66.3903 48.2001C66.4829 47.8033 66.5755 47.4066 66.6632 47.0098C66.7411 46.9905 66.8191 46.9905 66.897 47.0098L66.8191 47.0292L67.0169 47.041C67.601 47.076 68.2118 47.1125 68.8068 47.1646C68.8458 47.2034 68.9043 47.2227 68.9627 47.2034C70.2684 47.3969 71.5546 47.6872 72.8018 48.0743ZM70.0164 49.6662L70.0164 49.6663L70.0164 49.6663C69.966 49.8676 69.916 50.0678 69.8592 50.2612C69.8517 50.3132 69.8413 50.3652 69.8314 50.4151L69.8314 50.4151L69.8314 50.4151L69.8314 50.4151C69.8155 50.495 69.8007 50.5693 69.8007 50.629C69.3914 50.5709 68.9822 50.5709 68.573 50.6483C68.5473 50.7374 68.5386 50.8348 68.53 50.9295C68.5256 50.979 68.5212 51.0277 68.5145 51.0741C68.6156 51.1117 68.7003 51.1006 68.7951 51.0881C68.8466 51.0813 68.901 51.0741 68.9627 51.0741C69.4889 51.1128 70.0151 51.2096 70.5412 51.3257C70.7621 51.3805 70.9732 51.4645 71.1883 51.5501C71.2769 51.5853 71.3662 51.6208 71.4571 51.6547C71.4571 51.6085 71.4705 51.5447 71.4844 51.478C71.4996 51.4049 71.5156 51.3283 71.5156 51.2676C71.1843 51.0354 70.8335 50.8612 70.4633 50.7451C70.5128 50.4598 70.5472 50.1546 70.5819 49.8471C70.6154 49.5496 70.6492 49.2501 70.6971 48.9645L70.7166 48.9258C70.8725 48.8484 70.97 48.6742 71.0089 48.5001L70.9505 48.2678C70.853 48.113 70.6971 48.0162 70.5217 48.0356C70.3463 48.0936 70.132 48.2097 70.1125 48.4033C70.129 48.4279 70.1245 48.463 70.1198 48.4997C70.1134 48.5495 70.1066 48.6021 70.1515 48.6355C70.1417 48.6839 70.171 48.7081 70.2002 48.7323C70.2294 48.7565 70.2587 48.7807 70.2489 48.8291C70.1579 49.1001 70.0869 49.3842 70.0164 49.6662ZM66.9056 47.3538C66.9032 47.3825 66.9008 47.4125 66.8775 47.4356C66.7021 48.2097 66.5462 48.9452 66.4098 49.7387C66.4098 49.7557 66.4173 49.7652 66.4241 49.7738C66.4328 49.7848 66.4402 49.7944 66.4293 49.8161C66.6047 49.8355 66.7801 49.854 66.9555 49.8726C67.657 49.9469 68.3586 50.0213 69.0602 50.1451C69.0666 50.1387 69.071 50.1301 69.0753 50.1215C69.084 50.1043 69.0926 50.0871 69.1186 50.0871C69.1492 49.9534 69.1798 49.8206 69.2102 49.6886L69.2103 49.6885L69.2103 49.6885C69.3737 48.9793 69.5329 48.2889 69.6643 47.5711L67.9688 47.3775C67.8191 47.361 67.6657 47.3551 67.5134 47.3492C67.309 47.3412 67.1063 47.3334 66.9165 47.3001C66.9086 47.3157 66.9071 47.3345 66.9056 47.3538ZM67.3842 58.2156C67.4622 57.6931 67.5596 57.1512 67.696 56.648C67.735 56.3577 67.8129 56.0674 67.9299 55.7577C68.1442 54.6158 68.3781 53.474 68.6119 52.3321C68.3391 52.3031 68.0565 52.2595 67.774 52.216L67.7739 52.216L67.7739 52.216C67.4913 52.1724 67.2088 52.1289 66.936 52.0998C66.8275 52.0942 66.7191 52.0819 66.6121 52.0697C66.3538 52.0404 66.1041 52.0121 65.8837 52.0805C65.7277 52.6805 65.6303 53.2998 65.5913 53.9191C65.3965 55.8545 65.9811 57.8092 67.2088 59.3188L67.2283 59.2994L67.2448 59.158C67.279 58.8624 67.3172 58.5319 67.3842 58.2156ZM68.6119 59.1446L68.6314 59.0478C68.6219 59.0194 68.6357 59.0003 68.6477 58.9836C68.6602 58.9662 68.6708 58.9515 68.6509 58.9317L68.7058 58.7348L68.7058 58.7348C68.9406 57.8932 69.1717 57.0647 69.3525 56.2028L70.2684 52.1386L70.3463 51.887L70.3074 51.8289L70.3074 51.8289C70.2294 51.7708 70.1515 51.7128 70.093 51.6354C70.0827 51.6302 70.0696 51.6196 70.0555 51.6083C70.0168 51.5769 69.9709 51.5398 69.9566 51.5967C69.9355 51.5862 69.9429 51.5814 69.9511 51.5761C69.9581 51.5716 69.9655 51.5668 69.9566 51.5579H69.9371C69.6279 52.7407 69.3658 53.9369 69.1034 55.1346L69.1034 55.1346C68.9192 55.9751 68.7349 56.8164 68.534 57.6544H68.5145C68.5269 57.5804 68.5373 57.5064 68.5477 57.4331C68.5698 57.2762 68.5916 57.1221 68.6314 56.977L69.333 53.2998L69.6253 51.616L69.5863 51.5579C69.5418 51.5579 69.4972 51.5832 69.4527 51.6085C69.4193 51.6275 69.3859 51.6464 69.3525 51.6547L68.9432 53.6094C68.836 54.1609 68.7226 54.7184 68.6083 55.2801C68.3698 56.4531 68.1275 57.644 67.9299 58.8349C67.9299 59.164 68.0078 59.493 68.1442 59.8026C68.3391 59.5897 68.495 59.3768 68.6119 59.1446ZM73.5745 54.056C73.5793 53.9578 73.5839 53.8642 73.6398 53.7643V53.7449V53.7256C73.4352 53.6385 73.2257 53.5659 73.0162 53.4933L73.0161 53.4933C72.8067 53.4207 72.5972 53.3482 72.3926 53.2611C72.2104 53.2209 72.0306 53.176 71.8514 53.1314C71.5132 53.047 71.1775 52.9633 70.8335 52.9127C70.8147 52.9314 70.7912 52.923 70.7654 52.9136C70.7379 52.9037 70.7078 52.8927 70.6776 52.9127C70.6103 53.2047 70.5448 53.4986 70.4795 53.7921L70.4794 53.7921L70.4794 53.7921C70.3369 54.4322 70.1949 55.0699 70.0345 55.6803C69.8884 56.3577 69.7276 57.0302 69.5668 57.7028C69.4061 58.3753 69.2453 59.0478 69.0991 59.7252L69.1576 59.493C69.1576 59.5944 69.1427 59.681 69.126 59.7786L69.1186 59.822C69.4499 59.7059 69.7617 59.551 70.0735 59.3768C71.3012 58.7188 72.3146 57.6931 72.9577 56.4351C73.211 55.7383 73.4059 55.0223 73.5423 54.2868C73.5672 54.2044 73.5709 54.1289 73.5745 54.056ZM74.1465 51.5579C74.2049 50.9193 74.3024 50.2806 74.3998 49.6613C74.4266 49.5726 74.4329 49.4758 74.4394 49.3764C74.4471 49.259 74.455 49.1379 74.4972 49.0226C74.3189 48.9478 74.1422 48.8707 73.966 48.7937C73.2755 48.4921 72.5921 48.1937 71.8469 48.0549C71.7069 48.5417 71.597 49.0585 71.4884 49.5694C71.4459 49.7694 71.4036 49.9685 71.3597 50.1645C71.3363 50.2264 71.3254 50.2945 71.3145 50.3627C71.2981 50.4648 71.2818 50.567 71.2233 50.6483C71.2428 50.6483 71.2818 50.6677 71.2623 50.687C71.6381 50.7713 72.0063 50.878 72.3717 50.984C72.5938 51.0483 72.8147 51.1124 73.0357 51.1709L73.0551 51.1902C73.2382 51.2357 73.4145 51.3011 73.5919 51.367L73.592 51.367C73.7168 51.4133 73.8423 51.4599 73.9711 51.4999C73.9906 51.5063 74.01 51.5192 74.0295 51.5321C74.0685 51.5579 74.1075 51.5837 74.1465 51.5579ZM71.8858 43.1391C71.8642 43.0745 71.8184 43.0698 71.7719 43.065C71.7349 43.0612 71.6974 43.0574 71.6715 43.023V43.0424L71.6325 43.023C71.691 43.1198 71.7299 43.2359 71.7299 43.3714C71.7629 43.4122 71.7993 43.4393 71.8347 43.4657C71.8832 43.5017 71.93 43.5365 71.9638 43.6036C71.9833 43.6133 72.0028 43.6375 72.0223 43.6617C72.0417 43.6859 72.0612 43.7101 72.0807 43.7197C72.0943 43.7062 72.089 43.6833 72.0845 43.6642C72.0825 43.6558 72.0807 43.6482 72.0807 43.6423C72.0085 43.5706 71.9909 43.4773 71.973 43.3823C71.9571 43.2978 71.9409 43.212 71.8858 43.1391Z" fill="white" fill-opacity="0.5"/>
<path d="M52.6904 40.8167V39.6749H59.1799V40.8167L57.348 40.9716L60.0373 46.2358L62.2005 41.9393C62.6292 40.9716 62.4538 40.8167 61.2261 40.8167H60.9143V39.6749H65.6108V40.8167L64.2272 40.9716L60.6219 47.9389V51.7129C60.6219 52.7773 60.9922 52.8935 62.8046 52.9128H62.902L62.8435 54.0547H55.789L55.8864 52.9128L57.6403 52.7773V47.8808L54.2494 41.6102C53.9571 41.0877 53.5284 40.8167 52.7879 40.8167H52.6904Z" fill="white" fill-opacity="0.5"/>
<path d="M50.8196 52.7773C52.3592 52.7773 52.7099 52.5257 53.3141 51.0742C53.5674 50.4742 53.6453 50.1839 53.7428 49.913C53.8207 49.642 54.0546 49.4679 54.3469 49.4679C54.5808 49.4679 54.7951 49.4872 55.029 49.5646L54.5808 54.074H44.4082L44.4861 52.9322L46.1815 52.7967V42.7134C46.1815 40.9522 45.1682 40.8361 44.4666 40.8167H44.3302V39.6749H51.5991V40.8167L49.2411 40.9522V52.3903C49.2216 52.487 49.2606 52.5838 49.3191 52.6806C49.3775 52.7386 49.4555 52.758 49.5529 52.758L50.8196 52.7773Z" fill="white" fill-opacity="0.5"/>
<path d="M38.8736 52.7967L37.412 52.9128L37.3341 54.0547H43.843L43.9209 52.9128H43.804C42.206 52.8354 41.9332 52.7773 41.9332 51.3452V40.9329L43.6676 40.778V39.6749H36.8859V40.8167H36.9833C38.1721 40.8167 38.8541 41.3973 38.8541 42.6747L38.8736 52.7967Z" fill="white" fill-opacity="0.5"/>
<path d="M29.8702 42.4618L27.7851 48.3453H31.3318L29.8702 42.4618ZM26.6937 51.558C26.3624 52.6225 26.8886 52.9322 28.4087 52.9322H28.5646L28.4866 54.074H23.4198L23.4977 52.9322L24.7839 52.7967L29.5195 39.6942H31.897L35.3463 52.0612C35.5217 52.6225 35.892 52.9128 36.4376 52.9322L36.8663 52.9709L36.7884 54.1127H30.5328L30.6108 52.9709L32.4426 52.8547L31.6631 49.7775H27.2979L26.6937 51.558Z" fill="white" fill-opacity="0.5"/>
<path d="M16.9304 51.7903C16.9304 52.5257 16.9499 52.816 17.554 52.816C19.3274 52.816 21.2762 51.5968 21.2957 47.0293C21.2957 41.8812 19.4443 40.9135 16.9304 40.9135V51.7903ZM12 39.6749H17.1058C22.0167 39.6749 24.4722 42.1715 24.4916 46.8745C24.4916 51.229 21.9777 54.0547 17.2227 54.074H12.2533L12.3313 52.9322L13.8513 52.816V43.1005C13.8513 41.4941 13.4031 40.8361 12.1169 40.8361C12.078 40.8361 12.039 40.8361 12 40.8361V39.6749Z" fill="white" fill-opacity="0.5"/>
</svg>
