<svg width="170" height="100" viewBox="0 0 170 100" fill="none" xmlns="http://www.w3.org/2000/svg">
<path d="M60.9933 36.1161C60.9933 38.4019 62.4037 39.3397 64.2255 40.043L66.2236 40.7463C67.4577 41.2152 68.1629 41.6841 68.1629 42.739C68.1629 43.9699 67.0463 44.556 65.5184 44.556C63.9317 44.556 62.4038 43.9699 61.1696 42.9735V45.4351C62.1687 46.1384 63.6966 46.6659 65.5184 46.6659C68.3392 46.6659 70.4548 45.2593 70.4548 42.739C70.4548 40.7463 69.4558 39.5741 67.2814 38.6949L65.0483 37.8744C63.8729 37.4641 63.2265 37.0539 63.2265 36.0575C63.2265 34.9439 64.2255 34.4164 65.6359 34.4164C67.2226 34.4164 68.5155 35.0611 69.6908 35.9403V33.5372C68.5743 32.8339 67.1639 32.4236 65.6359 32.4236C63.109 32.365 60.9933 33.7131 60.9933 36.1161Z" fill="white" fill-opacity="0.5"/>
<path d="M131.22 36.0574C131.22 38.3432 132.63 39.281 134.452 39.9843L136.45 40.6876C137.684 41.1565 138.389 41.6254 138.389 42.6804C138.389 43.9112 137.273 44.4973 135.745 44.4973C134.158 44.4973 132.63 43.9112 131.396 42.9148V45.3764C132.395 46.0798 133.923 46.6073 135.745 46.6073C138.565 46.6073 140.681 45.2006 140.681 42.6804C140.681 40.6876 139.682 39.5154 137.508 38.6363L135.275 37.8157C134.099 37.4055 133.453 36.9952 133.453 35.9988C133.453 34.8852 134.452 34.3577 135.862 34.3577C137.449 34.3577 138.742 35.0024 139.917 35.8816V33.4786C138.801 32.7753 137.39 32.365 135.862 32.365C133.335 32.365 131.22 33.6544 131.22 36.0574Z" fill="white" fill-opacity="0.5"/>
<path d="M117.116 36.0574C117.116 38.3432 118.526 39.2809 120.348 39.9843L122.346 40.6876C123.58 41.1565 124.285 41.6253 124.285 42.6803C124.285 43.9111 123.169 44.4972 121.641 44.4972C120.054 44.4972 118.526 43.9111 117.292 42.9148V45.3764C118.291 46.0797 119.819 46.6072 121.641 46.6072C124.461 46.6072 126.577 45.2006 126.577 42.6803C126.577 40.6876 125.578 39.5154 123.404 38.6362L121.171 37.8157C119.995 37.4054 119.349 36.9951 119.349 35.9988C119.349 34.8852 120.348 34.3577 121.758 34.3577C123.345 34.3577 124.638 35.0024 125.813 35.8815V33.4785C124.697 32.7752 123.286 32.4235 121.758 32.4235C119.231 32.3649 117.116 33.6544 117.116 36.0574Z" fill="white" fill-opacity="0.5"/>
<path d="M103.423 32.5995V46.3729H111.768V44.2629H105.715V39.9844H111.121V37.933H105.715V34.5922H111.768V32.5409H103.423V32.5995Z" fill="white" fill-opacity="0.5"/>
<path d="M31.845 40.2774H34.7834C36.3113 40.2774 37.1928 41.0394 37.1928 42.3288C37.1928 43.5596 36.3113 44.3801 34.7834 44.3801H31.845V40.2774ZM31.845 34.6509H34.372C35.9587 34.6509 36.7814 35.237 36.7814 36.4678C36.7814 37.7572 35.8999 38.3433 34.372 38.3433H31.845V34.6509ZM29.6119 32.5995V46.3729H34.9009C37.7805 46.3729 39.5435 45.0249 39.5435 42.3874C39.5435 40.9221 38.6032 39.6327 37.3103 39.2225C38.3094 38.8708 39.1321 37.7572 39.1321 36.2919C39.1321 33.8303 37.3103 32.5409 34.4895 32.5409L29.6119 32.5995Z" fill="white" fill-opacity="0.5"/>
<path d="M78.7996 32.5995H76.449V46.3729H78.7996V32.5995Z" fill="white" fill-opacity="0.5"/>
<path d="M53.2949 32.5995V40.6291C53.2949 43.2665 52.1783 44.4974 50.1215 44.4974C48.0647 44.4974 46.9481 43.2665 46.9481 40.6291V32.5995H44.5974V40.8635C44.5974 44.6146 46.8305 46.5487 50.1215 46.5487C53.4124 46.5487 55.6456 44.6146 55.6456 40.8635V32.5995H53.2949Z" fill="white" fill-opacity="0.5"/>
<path d="M94.9605 32.5994V41.391L85.4403 32.365V46.3728H87.7322V37.4055L97.1937 46.6073V32.5994H94.9605Z" fill="white" fill-opacity="0.5"/>
<path d="M64.4018 57.5674C64.4018 59.7945 65.8122 60.7323 67.5752 61.4356L69.5733 62.139C70.8074 62.6078 71.5126 63.0181 71.5126 64.0731C71.5126 65.3039 70.396 65.89 68.8681 65.89C67.2814 65.89 65.7534 65.3039 64.5193 64.3661V66.7692C65.5184 67.4725 67.0463 68 68.8681 68C71.6301 68 73.7457 66.6519 73.7457 64.1903C73.7457 62.1976 72.7467 61.0254 70.6311 60.2634L68.4567 59.5015C67.3401 59.0912 66.6349 58.7396 66.6349 57.6846C66.6349 56.571 67.634 56.0435 69.0444 56.0435C70.6311 56.0435 71.9239 56.6296 73.0405 57.5088V55.1643C71.9239 54.461 70.5135 54.0508 68.9856 54.0508C66.5174 53.8749 64.4018 55.1643 64.4018 57.5674Z" fill="white" fill-opacity="0.5"/>
<path d="M82.1494 54.1094H79.7987V67.6483H82.1494V54.1094Z" fill="white" fill-opacity="0.5"/>
<path d="M40.2487 54.1094H37.898V67.6483H40.2487V54.1094Z" fill="white" fill-opacity="0.5"/>
<path d="M91.2582 56.1607H94.1378C97.0174 56.1607 98.5453 57.9777 98.5453 60.9082C98.5453 63.8387 97.0174 65.6556 94.1378 65.6556H91.2582V56.1607ZM88.9075 54.1094V67.6483H94.1378C98.1927 67.6483 100.778 65.0109 100.778 60.8496C100.778 56.7468 98.1339 54.0508 94.1378 54.0508H88.9075V54.1094Z" fill="white" fill-opacity="0.5"/>
<path d="M105.715 54.1094V67.6483H114.001V65.5384H108.007V61.377H113.413V59.3843H108.007V56.1607H114.001V54.1094H105.715Z" fill="white" fill-opacity="0.5"/>
<path d="M123.286 56.1021H125.931C127.459 56.1021 128.34 56.9227 128.34 58.2121C128.34 59.4429 127.459 60.3221 125.931 60.3221H123.286V56.1021ZM120.935 54.1094V67.6483H123.286V62.139H124.932L129.692 67.6483H132.336L127.459 62.0218C129.633 61.6701 130.632 60.3807 130.632 58.0949C130.632 55.4574 128.81 54.0508 125.989 54.0508L120.935 54.1094Z" fill="white" fill-opacity="0.5"/>
<path d="M46.8893 67.6483H49.1224V58.8568L58.5251 67.8828V54.1094H56.292V62.7837L46.8893 53.8749V67.6483Z" fill="white" fill-opacity="0.5"/>
</svg>
