<svg width="170" height="100" viewBox="0 0 170 100" fill="none" xmlns="http://www.w3.org/2000/svg">
<path fill-rule="evenodd" clip-rule="evenodd" d="M68.7153 42.037V54.0741H71.6441H74.5729V49.4444C74.5729 46.3889 74.5729 44.7222 74.5729 44.537C74.6644 44.0741 74.7559 43.6111 75.0305 43.2407C75.3966 42.5926 76.0373 42.3148 76.7695 42.4074C77.7763 42.5 78.4169 43.0556 78.6 44.2593C78.6 44.4444 78.6 46.2963 78.6 49.2593V53.9815H81.5288H84.4576V48.4259C84.4576 43.7037 84.4576 42.7778 84.3661 42.3148C84.1831 40.6481 83.6339 39.3519 82.6271 38.4259C81.8034 37.5926 80.7966 37.1296 79.6068 36.9444C79.1492 36.8519 77.8678 36.9444 77.5017 37.037C76.4034 37.3148 75.5797 37.6852 74.8475 38.5185L74.3898 38.8889V34.4444V30H71.461H68.5322V42.037H68.7153ZM130.953 30.1852C130.769 30.5556 124.82 45.0926 124.82 45.0926C124.82 45.0926 126.376 45.0926 128.298 45.0926H131.776L134.888 37.5926C136.627 33.4259 138 30 138 30C138 30 136.444 30 134.522 30H131.044L130.953 30.1852ZM55.9017 37.037C54.6203 37.2222 53.6136 37.5926 52.6068 38.2407C50.5932 39.537 49.3119 41.7593 48.9458 44.3519C48.7627 45.5556 48.8542 47.037 49.1288 48.1481C49.861 51.0185 51.7831 53.2407 54.2542 54.0741C55.1695 54.3519 55.5356 54.4444 56.6339 54.4444C57.4576 54.4444 57.7322 54.4444 58.0068 54.3519C59.1966 54.0741 60.0203 53.6111 60.7525 52.8704L61.1186 52.5V53.2407V53.9815H63.9559H66.7932V45.6482V37.3148H63.9559H61.1186V38.0556V38.7963L60.8441 38.5185C60.2034 37.7778 59.2881 37.3148 58.0983 37.037C57.7322 36.9444 57.5492 36.9444 56.8169 36.9444C56.3593 37.037 55.9932 37.037 55.9017 37.037ZM93.2441 37.037C91.6881 37.2222 90.0407 37.963 88.8508 38.8889C86.5627 40.8333 85.3729 43.8889 85.8305 47.037C86.2881 50.5556 88.7593 53.2407 92.2373 54.1667C92.9695 54.3519 93.7017 54.4444 94.617 54.4444C96.2644 54.4444 97.4542 54.1667 98.7356 53.5185C101.298 52.2222 102.946 49.9074 103.312 47.037C103.403 46.2963 103.403 45.0926 103.312 44.4444C103.129 43.0556 102.58 41.6667 101.756 40.5556C101.39 40.0926 100.658 39.2593 100.2 38.8889C98.9186 37.8704 97.4542 37.2222 95.8068 37.037C95.1661 36.9444 93.8847 36.9444 93.2441 37.037ZM111.915 37.037C110.359 37.2222 108.803 37.8704 107.614 38.8889C107.156 39.2593 106.332 40.0926 106.058 40.5556C105.234 41.6667 104.776 43.0556 104.502 44.4444C104.41 45.0926 104.41 46.3889 104.502 47.037C105.051 50.7407 107.705 53.6111 111.366 54.3519C112.098 54.537 112.464 54.537 113.288 54.537C114.844 54.537 116.217 54.2593 117.498 53.5185C120.885 51.7593 122.715 47.8704 121.892 43.8889C121.159 40.1852 118.231 37.5 114.478 37.037C113.837 36.9444 112.556 36.9444 111.915 37.037ZM30 37.4074C30 37.4074 31.5559 41.2037 33.478 45.8333C35.4 50.463 36.9559 54.2593 36.9559 54.2593C36.9559 54.2593 36.4068 55.6481 35.6746 57.3148C34.9424 58.9815 34.3932 60.2778 34.3932 60.3704C34.3932 60.463 35.7661 60.3704 37.5051 60.3704H40.6169L45.2847 48.9815C47.8475 42.6852 49.9525 37.5926 49.9525 37.5C49.9525 37.5 49.3119 37.4074 46.8407 37.5H43.7288L41.8068 42.3148C40.9831 44.9074 40.1593 47.1296 40.1593 47.1296C40.1593 47.1296 39.3356 44.9074 38.2373 42.3148L36.4068 37.5H33.2034C31.4644 37.4074 30 37.4074 30 37.4074ZM58.739 42.4074C59.9288 42.6852 60.8441 43.6111 61.2102 44.8148C61.3017 45.2778 61.3017 46.1111 61.2102 46.5741C60.9356 47.7778 60.0203 48.7037 58.8305 48.9815C58.3729 49.0741 57.5492 49.0741 57.0915 48.9815C56.0847 48.7037 55.1695 47.963 54.8034 47.037C54.3458 46.0185 54.5288 44.7222 55.078 43.7963C55.9017 42.5926 57.2746 42.1296 58.739 42.4074ZM95.2576 42.5C96.539 42.6852 97.5458 43.7037 97.8203 45C97.9119 45.463 97.9119 46.2037 97.8203 46.6667C97.5458 47.8704 96.6305 48.7037 95.5322 49.0741C95.1661 49.1667 94.1593 49.1667 93.7932 49.0741C92.878 48.7963 92.1458 48.1481 91.6881 47.3148C91.4136 46.7593 91.4136 46.4815 91.4136 45.8333C91.4136 45.2778 91.5051 45 91.6881 44.537C91.9627 43.9815 92.3288 43.4259 92.878 43.0556C93.4271 42.5 94.3424 42.3148 95.2576 42.5ZM113.837 42.5C114.936 42.6852 115.851 43.4259 116.217 44.4444C116.4 44.9074 116.492 45.1852 116.492 45.7407C116.492 46.3889 116.4 46.6667 116.217 47.2222C115.851 48.0556 115.027 48.7037 114.112 48.9815C113.746 49.0741 112.739 49.0741 112.373 48.9815C111.275 48.7037 110.359 47.7778 110.085 46.5741C109.993 46.1111 109.993 45.2778 110.085 44.8148C110.451 43.3333 111.732 42.3148 113.197 42.3148C113.38 42.4074 113.654 42.4074 113.837 42.5ZM126.285 46.5741C124.546 46.7593 123.264 48.0556 122.898 49.7222C122.807 50.1852 122.807 51.0185 122.898 51.4815C123.264 52.963 124.363 53.9815 125.827 54.3519C126.01 54.3519 126.376 54.4444 126.651 54.4444C127.749 54.4444 128.664 54.0741 129.397 53.3333C130.22 52.5 130.495 51.6667 130.495 50.5556C130.495 49.1667 129.854 47.963 128.756 47.3148C128.024 46.6667 127.017 46.4815 126.285 46.5741ZM78.0508 55.6481C76.861 56.0185 76.3119 57.4074 76.9525 58.4259C77.1356 58.7037 77.5017 59.0741 77.7763 59.1667C78.0508 59.2593 78.0508 59.2593 78.6 59.2593C79.0576 59.2593 79.1492 59.2593 79.4237 59.1667C79.7898 58.9815 80.1559 58.6111 80.339 58.2407C80.7966 57.3148 80.339 56.2037 79.4237 55.7407C79.1492 55.5556 79.0576 55.5556 78.6915 55.5556C78.3254 55.5556 78.2339 55.5556 78.0508 55.6481ZM73.1085 55.7407C71.5525 56.0185 70.5458 57.037 70.0881 58.7037C69.9966 58.9815 69.9966 59.2593 69.9966 59.6296V60.2778H69.3559H68.7153V61.6667V63.0556H69.3559H69.9966V66.3889V69.7222H71.7356H73.4746V66.3889V63.0556H74.6644H75.8542V61.6667V60.2778H74.6644H73.4746V60C73.5661 59.3519 73.8407 58.8889 74.3898 58.7963C74.7559 58.7037 75.3051 58.7037 75.6712 58.8889C75.8542 58.9815 75.9458 58.9815 75.9458 58.9815C75.9458 58.9815 75.9458 58.3333 75.9458 57.5V56.0185L75.6712 55.9259C75.3051 55.7407 74.8475 55.7407 74.2068 55.7407C73.7492 55.6481 73.383 55.7407 73.1085 55.7407ZM87.0203 60.0926C86.2881 60.2778 85.739 60.6481 85.3729 61.1111L85.1898 61.3889V60.8333V60.2778H83.4508H81.7119V65V69.7222H83.4508H85.1898V67.1296C85.1898 65.6481 85.1898 64.4444 85.1898 64.2593C85.2814 63.8889 85.4644 63.5185 85.6475 63.3333C86.1051 62.963 86.9288 63.0556 87.2949 63.5185C87.5695 63.8889 87.5695 63.8889 87.5695 66.8519V69.6296H89.3085H91.0475V66.4815C91.0475 63.1482 91.0475 62.7778 90.8644 62.1296C90.6814 61.5741 90.4983 61.1111 90.0407 60.7407C89.6746 60.3704 89.3085 60.0926 88.7593 60C88.3017 60 87.3864 60 87.0203 60.0926ZM95.7153 60C95.1661 60.0926 94.3424 60.3704 93.8847 60.7407C92.878 61.4815 92.2373 62.5926 91.9627 63.9815C91.8712 64.537 91.8712 65.5556 91.9627 66.1111C92.1458 66.9444 92.4203 67.7778 92.878 68.3333C93.5186 69.1667 94.3424 69.7222 95.3492 69.9074C95.8983 70 96.8136 70 97.2712 69.8148C97.8203 69.6296 98.1864 69.4444 98.6441 69.0741L99.0102 68.7037V69.1667V69.6296H100.749H102.488V64.9074V60.1852H100.749H99.0102V60.6481V61.1111L98.7356 61.0185C98.278 60.5556 97.6373 60.1852 96.9051 60.0926C96.6305 60 95.9898 60 95.7153 60ZM108.986 60.0926C108.346 60.1852 107.705 60.6481 107.339 61.1111L107.156 61.2963V60.7407V60.1852H105.417H103.678V64.9074V69.6296H105.417H107.156V66.9444C107.156 64.0741 107.156 64.0741 107.339 63.6111C107.522 63.2407 107.888 63.0556 108.254 63.0556C108.62 63.0556 108.803 63.1482 109.078 63.3333C109.444 63.7037 109.444 63.6111 109.444 66.7593V69.537H111.183H112.922V66.1111C112.922 62.6852 112.922 62.6852 112.831 62.3148C112.739 62.1296 112.647 61.7593 112.556 61.4815C112.373 61.1111 112.281 61.0185 112.007 60.7407C111.641 60.3704 111.366 60.1852 111 60C110.359 60 109.627 59.9074 108.986 60.0926ZM118.047 60.0926C116.492 60.3704 115.302 61.1111 114.569 62.4074C114.386 62.7778 114.203 63.2407 114.02 63.7037C113.929 64.1667 113.929 64.2593 113.929 65C113.929 65.8333 113.929 66.1111 114.203 66.7593C114.753 68.3333 116.034 69.537 117.773 69.9074C118.047 70 118.322 70 118.963 70C119.878 70 120.244 69.9074 120.885 69.6296L121.251 69.4444V67.8704V66.2963L120.976 66.4815C120.519 66.7593 120.244 66.8519 119.695 66.8519C119.146 66.8519 118.871 66.8519 118.505 66.6667C118.139 66.4815 117.864 66.2037 117.681 65.8333C117.59 65.5556 117.59 65.5556 117.59 65.0926C117.59 64.7222 117.59 64.6296 117.681 64.3519C117.956 63.6111 118.597 63.2407 119.512 63.1482C120.153 63.1482 120.427 63.1482 121.342 63.6111C121.342 63.6111 121.342 62.8704 121.342 62.037V60.463L121.068 60.3704C120.061 60 118.963 59.9074 118.047 60.0926ZM125.919 60.0926C123.264 60.5556 121.617 62.8704 121.8 65.5556C121.892 66.4815 122.166 67.3148 122.624 67.963C123.264 68.9815 124.271 69.6296 125.553 69.9074C126.102 70 127.566 70 128.207 69.9074C129.122 69.7222 129.946 69.2593 130.586 68.6111C130.861 68.3333 131.319 67.6852 131.319 67.6852C131.319 67.6852 130.678 67.4074 129.854 67.1296L128.39 66.5741L128.207 66.7593C127.932 67.037 127.749 67.1296 127.383 67.2222C126.376 67.5 125.369 66.9444 125.186 66.0185V65.8333H128.39H131.593V65C131.593 64.4445 131.593 64.0741 131.502 63.8889C131.319 62.7778 130.861 62.037 130.22 61.2963C129.58 60.6482 128.847 60.2778 127.841 60.0926C127.475 60 126.376 60 125.919 60.0926ZM76.861 65V69.7222H78.6H80.339V65V60.2778H78.6H76.861V65ZM127.292 62.6852C127.566 62.7778 127.658 62.8704 127.932 63.0556C128.115 63.2407 128.298 63.4259 128.298 63.7037V63.8889H126.742C125.003 63.8889 125.095 63.8889 125.278 63.5185C125.553 62.8704 126.376 62.5 127.292 62.6852ZM97.7288 63.1482C98.1864 63.2407 98.7356 63.7037 98.9186 64.1667C99.3763 65.1852 98.9186 66.3889 97.8203 66.7593C97.4542 66.8519 96.9051 66.8519 96.539 66.7593C95.9898 66.5741 95.4407 66.1111 95.3492 65.5556C95.2576 65.2778 95.2576 65.1852 95.2576 64.9074C95.2576 64.537 95.2576 64.4444 95.4407 64.1667C95.8068 63.3333 96.722 62.963 97.7288 63.1482Z" fill="white" fill-opacity="0.5"/>
</svg>
