<svg width="170" height="100" viewBox="0 0 170 100" fill="none" xmlns="http://www.w3.org/2000/svg">
<path d="M50.0985 56.484C47.1686 56.484 45.3656 53.8519 45.3656 50.2247C45.3656 46.6297 46.8788 43.9655 50.0985 43.9655C52.1913 43.9655 53.5758 45.3136 53.8334 47.079H58.7273C58.4697 44.8642 57.4716 42.9383 55.7652 41.6544C54.3485 40.563 52.4167 39.921 50.1307 39.921C44.2387 39.921 40.4072 44.3827 40.4072 50.2247C40.4072 56.1309 44.3675 60.4642 50.1629 60.4642C52.9318 60.4642 54.9925 59.6939 56.4735 58.2173C57.8258 56.9334 58.7273 55.1358 58.8561 53.1778H53.9622C53.7368 55.1037 52.2879 56.484 50.0985 56.484Z" fill="white" fill-opacity="0.5"/>
<path d="M67.8712 45.5382C63.3314 45.5382 60.3049 48.7802 60.3049 53.0172C60.3049 57.2543 63.3314 60.4962 67.8712 60.4962C72.4432 60.4962 75.4053 57.2543 75.4053 53.0172C75.4053 48.7802 72.411 45.5382 67.8712 45.5382ZM67.839 57.2864C65.875 57.2864 64.8447 55.5851 64.8447 53.0172C64.8447 50.4493 65.875 48.716 67.839 48.716C69.803 48.716 70.8655 50.4493 70.8655 53.0172C70.8333 55.5851 69.803 57.2864 67.839 57.2864Z" fill="white" fill-opacity="0.5"/>
<path d="M81.8125 44.0296C82.7784 43.0666 82.7784 41.5259 81.8125 40.5629C80.8466 39.6 79.3011 39.6 78.3352 40.5629C77.3693 41.5259 77.3693 43.0666 78.3352 44.0296C79.2689 44.9925 80.8466 44.9925 81.8125 44.0296Z" fill="white" fill-opacity="0.5"/>
<path d="M76.1458 49.1012H78.0454V60.079H82.553V45.9235H76.178V49.1012H76.1458Z" fill="white" fill-opacity="0.5"/>
<path d="M93.5644 45.5062C91.6004 45.5062 90.2481 46.3408 89.1856 47.8494H89.089V45.9235H84.7746V60.047H89.2822V52.247C89.2822 50.5136 90.2803 49.2618 91.7613 49.2618C93.2424 49.2618 93.9829 50.2889 93.9829 51.7655V60.047H98.4905V50.8667C98.4905 47.721 96.6553 45.5062 93.5644 45.5062Z" fill="white" fill-opacity="0.5"/>
<path d="M109.051 40.3062H100.616V60.0148H108.729C111.208 60.0148 113.205 59.3728 114.75 58.2173C116.972 56.516 118.195 53.7555 118.195 50.2568C118.195 44.2543 114.525 40.3062 109.051 40.3062ZM108.375 55.9382H105.509V44.3827H108.439C111.498 44.3827 113.269 46.6938 113.269 50.2889C113.237 53.916 111.595 55.9382 108.375 55.9382Z" fill="white" fill-opacity="0.5"/>
<path d="M131.557 47.368C130.333 46.2766 128.724 45.6025 126.727 45.6025C122.413 45.6025 119.483 48.8445 119.483 53.0495C119.483 57.3186 122.348 60.5606 127.017 60.5606C128.82 60.5606 130.237 60.0791 131.428 59.2766C132.652 58.4099 133.489 57.2223 133.811 55.9383H129.432C129.045 56.805 128.273 57.3507 127.081 57.3507C125.246 57.3507 124.184 56.163 123.894 54.2692H134.068C134.068 51.3482 133.231 48.9087 131.557 47.368ZM123.894 51.5408C124.184 49.8396 125.085 48.7803 126.792 48.7803C128.241 48.7803 129.303 49.8717 129.464 51.5408H123.894Z" fill="white" fill-opacity="0.5"/>
<path d="M142.922 51.2198C141.119 50.8988 139.542 50.7383 139.542 49.7754C139.542 48.9087 140.411 48.4914 141.506 48.4914C142.761 48.4914 143.598 48.8766 143.759 50.1285H147.913C147.687 47.3359 145.53 45.6025 141.538 45.6025C138.189 45.6025 135.42 47.1433 135.42 50.1285C135.42 53.4346 138.028 54.1087 140.508 54.4939C142.407 54.8149 144.114 54.9754 144.114 56.2272C144.114 57.1581 143.244 57.6396 141.892 57.6396C140.411 57.6396 139.477 56.9655 139.284 55.5532H135.034C135.163 58.6667 137.771 60.5927 141.924 60.5927C145.627 60.5927 148.364 58.9877 148.364 55.9062C148.331 52.2791 145.434 51.6371 142.922 51.2198Z" fill="white" fill-opacity="0.5"/>
<path d="M158.924 51.2197L163.915 45.9234H158.731L154.514 50.7062V40.3383H150.07V60.079H154.514V55.7457L155.866 54.3012L159.246 60.079H164.462L158.924 51.2197Z" fill="white" fill-opacity="0.5"/>
<path d="M20.6061 51.5408C21.3466 51.5408 21.9583 50.9309 21.9583 50.1926C21.9583 49.4544 21.3466 48.8445 20.6061 48.8445C19.8655 48.8445 19.2538 49.4544 19.2538 50.1926C19.2538 50.9309 19.8333 51.5408 20.6061 51.5408Z" fill="white" fill-opacity="0.5"/>
<path d="M31.4886 51.5408C32.2292 51.5408 32.8409 50.9309 32.8409 50.1926C32.8409 49.4544 32.2292 48.8445 31.4886 48.8445C30.7481 48.8445 30.1364 49.4544 30.1364 50.1926C30.1364 50.9309 30.7159 51.5408 31.4886 51.5408Z" fill="white" fill-opacity="0.5"/>
<path d="M31.4886 62.4544C32.2291 62.4544 32.8409 61.8445 32.8409 61.1062C32.8409 60.3679 32.2291 59.7581 31.4886 59.7581C30.7481 59.7581 30.1363 60.3679 30.1363 61.1062C30.1041 61.8445 30.7159 62.4544 31.4886 62.4544Z" fill="white" fill-opacity="0.5"/>
<path d="M35.481 39.0543C35.3522 37.0642 33.7424 35.4593 31.7462 35.2988C30.4583 35.2025 29.3314 35.684 28.5265 36.5185C27.9147 37.1605 27.0776 37.5136 26.2083 37.5136H25.8863C24.9848 37.5136 24.1477 37.1284 23.5037 36.4864C22.7632 35.7482 21.7329 35.2988 20.606 35.2988C19.4791 35.2988 18.4488 35.7803 17.7083 36.4864C17.0644 37.1284 16.2272 37.5136 15.3257 37.5136H15.0359C14.1666 37.5136 13.2973 37.1605 12.6856 36.5506C12.5568 36.4223 12.428 36.2939 12.2992 36.1976C10.7859 34.9457 8.53216 35.0099 7.0511 36.2939C5.28026 37.8667 5.21587 40.5951 6.85791 42.2321C6.89011 42.2642 6.89011 42.2642 6.92231 42.2963C7.56625 42.9062 7.92041 43.7729 7.92041 44.6395V44.9605C7.92041 45.8593 7.53405 46.6939 6.89011 47.3358C6.14958 48.0741 5.69882 49.1013 5.69882 50.2247C5.69882 51.3482 6.18178 52.3753 6.89011 53.1136C7.53405 53.7556 7.92041 54.5902 7.92041 55.4889V55.9062C7.92041 56.7729 7.53405 57.6074 6.92231 58.2173C6.11738 58.9877 5.63443 60.079 5.69882 61.2988C5.79541 63.4173 7.50185 65.1185 9.62685 65.1827C10.8503 65.2148 11.945 64.7334 12.7178 63.9309C13.3295 63.2889 14.1666 62.9037 15.0359 62.9037H15.3901C16.2594 62.9037 17.0965 63.2889 17.7083 63.9309C18.5132 64.7655 19.6723 65.2469 20.9602 65.1827C22.9564 65.0543 24.5662 63.4173 24.7272 61.4272C24.8882 59.0519 23.0208 57.0618 20.6704 57.0618C19.5435 57.0618 18.5454 57.5111 17.8049 58.2494C17.1609 58.8914 16.3238 59.2445 15.4545 59.2445H15.0681C14.1988 59.2445 13.3295 58.8914 12.6856 58.2494C12.6534 58.2173 12.6534 58.2173 12.6534 58.2173C12.0094 57.5753 11.6231 56.7408 11.6231 55.842V55.4568C11.6231 54.5581 12.0094 53.7235 12.6534 53.0815C13.3939 52.3432 13.8447 51.3161 13.8447 50.1926C13.8447 49.0692 13.3617 48.042 12.6534 47.3037C12.0094 46.6618 11.6231 45.8272 11.6231 44.9284V44.6074C11.6231 43.7087 12.0094 42.8741 12.6212 42.2321C12.6534 42.2 12.6534 42.2 12.6534 42.2C12.6856 42.1679 12.6856 42.1679 12.6856 42.1679C13.3295 41.526 14.1666 41.1729 15.0681 41.1729H15.3901C16.2916 41.1729 17.1287 41.5581 17.7727 42.2C18.5132 42.9383 19.5435 43.3877 20.6704 43.3877C21.7973 43.3877 22.8276 42.9062 23.5681 42.2C24.2121 41.5581 25.0492 41.1729 25.9507 41.1729H26.2405C27.142 41.1729 27.9791 41.5581 28.6231 42.2C29.3636 42.9383 30.3939 43.3877 31.5208 43.3877C33.7746 43.4198 35.642 41.4297 35.481 39.0543Z" fill="white" fill-opacity="0.5"/>
</svg>
